<svg preserveAspectRatio="none" width="100%" height="100%" overflow="visible" style="display: block;" viewBox="0 0 79.0003 17" fill="none" xmlns="http://www.w3.org/2000/svg">
<g id="Group 721" opacity="0.2">
<path id="Vector" d="M12.5382 3.86272C11.4734 3.50077 10.3563 3.30478 9.22836 3.28201C9.22836 3.28201 8.462 3.26588 8.40743 3.26588C9.14264 2.60591 9.97213 2.05252 10.8702 1.62286L13.6035 4.27751C13.5916 4.2729 12.9273 3.99868 12.5382 3.86272ZM13.269 12.2207C11.9179 12.6572 10.4901 12.8244 9.07094 12.7124C7.65179 12.6003 6.27052 12.2113 5.00981 11.5686C4.91254 8.60053 5.78566 6.05649 7.65293 4.0125C8.10003 3.95985 8.55024 3.93598 9.00059 3.94107C10.3352 4.89525 11.4179 6.14314 12.1599 7.58238C12.9019 9.02162 13.2819 10.6112 13.269 12.2207V12.2207ZM4.33124 11.1884C4.33424 12.0471 4.40963 12.9041 4.55664 13.7508L0.352329 9.66746C0.126713 9.44791 0 9.15038 0 8.84019C0 8.52999 0.126713 8.23247 0.352329 8.01291L8.38845 0.205661C8.52406 0.0739768 8.70798 0 8.89975 0C9.09152 0 9.27543 0.0739768 9.41105 0.205661L10.3601 1.12741C9.24546 1.74182 8.22215 2.50079 7.31839 3.38341C7.31839 3.38341 6.87945 3.85811 6.63032 4.17612C5.45587 5.67396 4.32887 7.953 4.33124 11.1884V11.1884ZM7.19738 16.3156L5.41316 14.5827C5.2439 13.8406 5.12501 13.0885 5.05727 12.3313C7.61497 13.5231 10.5412 13.7345 13.2524 12.9236C13.2524 12.9236 13.7696 12.7507 13.9404 12.6908C14.1112 12.6309 14.3888 12.5157 14.6309 12.4074L10.6045 16.3156C10.1524 16.7539 9.5397 17 8.90094 17C8.26217 17 7.6495 16.7539 7.19738 16.3156V16.3156ZM17.3499 9.76425C16.3777 10.7131 15.2212 11.465 13.9475 11.9765C13.9251 10.4667 13.5776 8.9782 12.9275 7.60664C12.2774 6.23508 11.339 5.0108 10.1727 4.0125C11.4707 4.16379 12.7279 4.55074 13.8787 5.15317C15.1054 5.73157 16.3724 6.94829 17.4567 8.01752C17.6797 8.23788 17.8041 8.5349 17.8028 8.84392C17.8015 9.15293 17.6745 9.44892 17.4495 9.66746C17.4116 9.70203 17.3784 9.73659 17.3499 9.76425Z" fill="var(--fill-0, black)"/>
<g id="Group 720">
<path id="Vector_2" d="M23.3664 3.92259C23.365 3.17362 23.5964 2.44109 24.0313 1.81778C24.4661 1.19447 25.085 0.708419 25.8093 0.421177C26.5337 0.133935 27.331 0.0584264 28.1004 0.204214C28.8697 0.350001 29.5764 0.710526 30.1311 1.24013C30.6857 1.76973 31.0632 2.44459 31.2159 3.17924C31.3686 3.91389 31.2895 4.67528 30.9887 5.36698C30.6879 6.05868 30.1789 6.64958 29.5261 7.06485C28.8734 7.48012 28.1063 7.70107 27.3219 7.69972C26.801 7.70487 26.2842 7.61069 25.8019 7.42269C25.3195 7.2347 24.8813 6.95667 24.5129 6.6049C24.1446 6.25313 23.8534 5.83469 23.6565 5.3741C23.4597 4.91352 23.361 4.42004 23.3664 3.92259V3.92259ZM29.3621 3.92259C29.3671 3.66504 29.3184 3.4091 29.2187 3.16975C29.119 2.9304 28.9703 2.71243 28.7813 2.52858C28.5924 2.34473 28.3669 2.19869 28.1182 2.099C27.8694 1.99931 27.6024 1.94796 27.3326 1.94796C27.0629 1.94796 26.7958 1.99931 26.5471 2.099C26.2983 2.19869 26.0729 2.34473 25.8839 2.52858C25.695 2.71243 25.5463 2.9304 25.4466 3.16975C25.3469 3.4091 25.2981 3.66504 25.3032 3.92259C25.2981 4.18014 25.3469 4.43607 25.4466 4.67543C25.5463 4.91478 25.695 5.13275 25.8839 5.3166C26.0729 5.50045 26.2983 5.64648 26.5471 5.74618C26.7958 5.84587 27.0629 5.89722 27.3326 5.89722C27.6024 5.89722 27.8694 5.84587 28.1182 5.74618C28.3669 5.64648 28.5924 5.50045 28.7813 5.3166C28.9703 5.13275 29.119 4.91478 29.2187 4.67543C29.3184 4.43607 29.3671 4.18014 29.3621 3.92259V3.92259Z" fill="var(--fill-0, black)"/>
<path id="Vector_3" d="M42.3256 3.12381V7.55176H40.3509V3.35379C40.3509 2.37209 39.7242 1.86751 38.8352 1.86751C37.8697 1.86751 37.1519 2.39955 37.1519 3.65585V7.54832H35.1772V0.340046L37.1519 0.340046V1.14669C37.4101 0.810124 37.7549 0.540931 38.1539 0.364401C38.5529 0.187872 38.9929 0.109802 39.4327 0.137528C41.0577 0.137528 42.3256 1.20504 42.3256 3.12381Z" fill="var(--fill-0, black)"/>
<path id="Vector_4" d="M42.481 3.92281C42.4796 3.17384 42.711 2.44132 43.1459 1.81801C43.5808 1.1947 44.1996 0.708645 44.9239 0.421403C45.6483 0.134161 46.4457 0.0586522 47.215 0.204439C47.9843 0.350227 48.6911 0.710751 49.2457 1.24036C49.8003 1.76996 50.1778 2.44482 50.3305 3.17947C50.4832 3.91411 50.4041 4.6755 50.1033 5.36721C49.8025 6.05891 49.2935 6.64981 48.6407 7.06508C47.988 7.48034 47.2209 7.7013 46.4365 7.69995C45.9156 7.7051 45.3988 7.61091 44.9165 7.42292C44.4341 7.23492 43.9959 6.95689 43.6276 6.60512C43.2592 6.25335 42.968 5.83492 42.7711 5.37433C42.5743 4.91374 42.4756 4.42027 42.481 3.92281V3.92281ZM48.4731 3.92281C48.4782 3.66526 48.4294 3.40933 48.3297 3.16998C48.23 2.93063 48.0813 2.71266 47.8924 2.52881C47.7034 2.34496 47.478 2.19892 47.2292 2.09923C46.9805 1.99953 46.7134 1.94819 46.4437 1.94819C46.1739 1.94819 45.9069 1.99953 45.6581 2.09923C45.4094 2.19892 45.1839 2.34496 44.995 2.52881C44.806 2.71266 44.6573 2.93063 44.5576 3.16998C44.4579 3.40933 44.4091 3.66526 44.4142 3.92281C44.4091 4.18037 44.4579 4.4363 44.5576 4.67565C44.6573 4.915 44.806 5.13297 44.995 5.31682C45.1839 5.50067 45.4094 5.64671 45.6581 5.7464C45.9069 5.84609 46.1739 5.89744 46.4437 5.89744C46.7134 5.89744 46.9805 5.84609 47.2292 5.7464C47.478 5.64671 47.7034 5.50067 47.8924 5.31682C48.0813 5.13297 48.23 4.915 48.3297 4.67565C48.4294 4.4363 48.4782 4.18037 48.4731 3.92281V3.92281Z" fill="var(--fill-0, black)"/>
<path id="Vector_5" d="M57.3995 0.28125L54.5976 7.55255H52.4313L49.6294 0.28125L51.722 0.28125L53.5057 5.37116L55.3033 0.28125L57.3995 0.28125Z" fill="var(--fill-0, black)"/>
<path id="Vector_6" d="M56.6226 3.92281C56.6212 3.17384 56.8526 2.44132 57.2874 1.81801C57.7223 1.1947 58.3411 0.708645 59.0655 0.421403C59.7899 0.134161 60.5872 0.0586522 61.3565 0.204439C62.1259 0.350227 62.8326 0.710751 63.3872 1.24036C63.9418 1.76996 64.3194 2.44482 64.4721 3.17947C64.6247 3.91411 64.5457 4.6755 64.2448 5.36721C63.944 6.05891 63.435 6.64981 62.7823 7.06508C62.1295 7.48034 61.3624 7.7013 60.5781 7.69995C60.0571 7.7051 59.5404 7.61091 59.058 7.42292C58.5757 7.23492 58.1375 6.95689 57.7691 6.60512C57.4007 6.25335 57.1096 5.83492 56.9127 5.37433C56.7158 4.91374 56.6172 4.42027 56.6226 3.92281V3.92281ZM62.6147 3.92281C62.6197 3.66526 62.571 3.40933 62.4713 3.16998C62.3715 2.93063 62.2229 2.71266 62.0339 2.52881C61.845 2.34496 61.6195 2.19892 61.3708 2.09923C61.122 1.99953 60.855 1.94819 60.5852 1.94819C60.3155 1.94819 60.0484 1.99953 59.7997 2.09923C59.5509 2.19892 59.3255 2.34496 59.1365 2.52881C58.9476 2.71266 58.7989 2.93063 58.6992 3.16998C58.5995 3.40933 58.5507 3.66526 58.5558 3.92281C58.5507 4.18037 58.5995 4.4363 58.6992 4.67565C58.7989 4.915 58.9476 5.13297 59.1365 5.31682C59.3255 5.50067 59.5509 5.64671 59.7997 5.7464C60.0484 5.84609 60.3155 5.89744 60.5852 5.89744C60.855 5.89744 61.122 5.84609 61.3708 5.7464C61.6195 5.64671 61.845 5.50067 62.0339 5.31682C62.2229 5.13297 62.3715 4.915 62.4713 4.67565C62.571 4.4363 62.6197 4.18037 62.6147 3.92281V3.92281Z" fill="var(--fill-0, black)"/>
<path id="Vector_7" d="M34.5551 12.3054V16.7519H32.6102V12.436C32.6102 11.5838 32.158 11.065 31.3434 11.065C30.4858 11.065 29.9403 11.6148 29.9403 12.6972V16.7519H27.9954V12.436C27.9954 11.5838 27.5432 11.065 26.7286 11.065C25.8997 11.065 25.3112 11.6148 25.3112 12.6972V16.7519H23.3662V9.53582H25.3112V10.3021C25.5453 9.98317 25.8608 9.72698 26.2277 9.55795C26.5945 9.38892 27.0005 9.31269 27.4068 9.33652C27.8144 9.31604 28.2202 9.40171 28.581 9.58444C28.9418 9.76717 29.2442 10.0401 29.4559 10.3743C29.7081 10.0335 30.0465 9.7596 30.4394 9.57812C30.8322 9.39663 31.2667 9.31351 31.7023 9.33652C33.4247 9.32965 34.5551 10.5014 34.5551 12.3054Z" fill="var(--fill-0, black)"/>
<path id="Vector_8" d="M38.8617 15.2225C39.1808 15.2346 39.4984 15.1762 39.79 15.052C40.0815 14.9279 40.3391 14.7412 40.5425 14.5065L42.1054 15.3657C41.7383 15.8628 41.2458 16.2637 40.6732 16.5312C40.1006 16.7988 39.4665 16.9244 38.8295 16.8965C36.3046 16.8965 34.7132 15.2498 34.7132 13.1155C34.6947 12.6142 34.7847 12.1147 34.9775 11.648C35.1703 11.1814 35.4618 10.7575 35.8338 10.4028C36.2058 10.0482 36.6505 9.7703 37.14 9.5865C37.6295 9.40271 38.1535 9.31692 38.6793 9.3345C40.9037 9.3345 42.4809 11.0085 42.4809 13.1155C42.4803 13.3706 42.4552 13.6251 42.4058 13.8758H36.7409C37.0127 14.8202 37.8424 15.2225 38.8617 15.2225ZM40.5461 12.4439C40.4719 12.0286 40.2421 11.6532 39.8994 11.3873C39.5567 11.1215 39.1244 10.9832 38.6829 10.9983C38.2263 10.9681 37.7739 11.0985 37.4114 11.3649C37.0489 11.6313 36.8014 12.0152 36.7159 12.4439H40.5461Z" fill="var(--fill-0, black)"/>
<path id="Vector_9" d="M46.9878 9.33624V11.4307C45.9887 11.313 44.7192 11.7492 44.7192 13.2759V16.7517H42.792V9.48164L44.7192 9.48164V10.7314C44.8991 10.2964 45.215 9.92758 45.6221 9.67717C46.0293 9.42676 46.5071 9.30748 46.9878 9.33624Z" fill="var(--fill-0, black)"/>
<path id="Vector_10" d="M46.9883 13.1166C46.9761 12.6166 47.0717 12.1194 47.2693 11.6552C47.467 11.1909 47.7626 10.7692 48.1382 10.4155C48.5139 10.0619 48.9619 9.7836 49.455 9.59754C49.9481 9.41148 50.4762 9.32149 51.0074 9.33301C51.7004 9.32147 52.3838 9.48741 52.9844 9.8131C53.5851 10.1388 54.0804 10.612 54.4176 11.1822L52.7288 12.1136C52.5653 11.8156 52.3154 11.5675 52.0082 11.3978C51.7009 11.2281 51.3489 11.1439 50.9929 11.1549C50.4489 11.1644 49.9306 11.3746 49.5494 11.7402C49.1683 12.1058 48.9548 12.5975 48.9548 13.1098C48.9548 13.622 49.1683 14.1138 49.5494 14.4794C49.9306 14.8449 50.4489 15.0551 50.9929 15.0647C51.3499 15.0802 51.7042 14.9995 52.0143 14.8321C52.3243 14.6647 52.5772 14.4176 52.7433 14.1196L54.4466 15.0374C54.0012 15.7523 53.318 16.3092 52.5026 16.6218C51.6872 16.9343 50.7851 16.9852 49.9359 16.7665C49.0867 16.5478 48.3377 16.0717 47.8049 15.4119C47.2721 14.7521 46.9851 13.9454 46.9883 13.1166V13.1166Z" fill="var(--fill-0, black)"/>
<path id="Vector_11" d="M62.3724 9.5361V16.6964H60.4615V15.8508C60.1711 16.1952 59.8016 16.4692 59.3823 16.651C58.963 16.8327 58.5055 16.9171 58.0465 16.8976C56.0757 16.8976 54.4469 15.2507 54.4469 13.1162C54.4469 10.9818 56.0757 9.33493 58.0465 9.33493C58.5055 9.3157 58.9628 9.4003 59.382 9.58202C59.8013 9.76374 60.1709 10.0376 60.4615 10.3817V9.5361H62.3724ZM60.4615 13.1162C60.4666 12.8526 60.4172 12.5905 60.3164 12.3455C60.2155 12.1004 60.0652 11.8773 59.8742 11.6891C59.6831 11.5009 59.4552 11.3514 59.2038 11.2493C58.9523 11.1473 58.6823 11.0947 58.4096 11.0947C58.1369 11.0947 57.867 11.1473 57.6155 11.2493C57.364 11.3514 57.1361 11.5009 56.9451 11.6891C56.7541 11.8773 56.6037 12.1004 56.5029 12.3455C56.402 12.5905 56.3527 12.8526 56.3578 13.1162C56.3527 13.3799 56.402 13.642 56.5029 13.887C56.6037 14.1321 56.7541 14.3552 56.9451 14.5434C57.1361 14.7316 57.364 14.8811 57.6155 14.9832C57.867 15.0852 58.1369 15.1378 58.4096 15.1378C58.6823 15.1378 58.9523 15.0852 59.2038 14.9832C59.4552 14.8811 59.6831 14.7316 59.8742 14.5434C60.0652 14.3552 60.2155 14.1321 60.3164 13.887C60.4172 13.642 60.4666 13.3799 60.4615 13.1162Z" fill="var(--fill-0, black)"/>
<path id="Vector_12" d="M70.764 6.66312V16.6974H68.8148V15.851C68.5242 16.1975 68.1508 16.4733 67.7255 16.6555C67.3003 16.8377 66.8353 16.9211 66.3693 16.8987C64.3446 16.8987 62.6831 15.2503 62.6831 13.1137C62.6831 10.9772 64.3446 9.32869 66.3693 9.32869C66.8355 9.30522 67.3008 9.3881 67.7263 9.5704C68.1518 9.75271 68.525 10.0291 68.8148 10.3765V6.66312H70.764ZM68.8148 13.1137C68.8199 12.8498 68.7696 12.5875 68.6668 12.3422C68.5639 12.0969 68.4105 11.8736 68.2157 11.6852C68.0208 11.4968 67.7883 11.3471 67.5318 11.245C67.2753 11.1428 66.9999 11.0902 66.7217 11.0902C66.4436 11.0902 66.1682 11.1428 65.9117 11.245C65.6552 11.3471 65.4227 11.4968 65.2278 11.6852C65.033 11.8736 64.8796 12.0969 64.7767 12.3422C64.6739 12.5875 64.6235 12.8498 64.6287 13.1137C64.6235 13.3777 64.6739 13.64 64.7767 13.8852C64.8796 14.1305 65.033 14.3539 65.2278 14.5423C65.4227 14.7307 65.6552 14.8803 65.9117 14.9825C66.1682 15.0846 66.4436 15.1373 66.7217 15.1373C66.9999 15.1373 67.2753 15.0846 67.5318 14.9825C67.7883 14.8803 68.0208 14.7307 68.2157 14.5423C68.4105 14.3539 68.5639 14.1305 68.6668 13.8852C68.7696 13.64 68.8199 13.3777 68.8148 13.1137V13.1137Z" fill="var(--fill-0, black)"/>
<path id="Vector_13" d="M71.0751 13.123C71.0737 12.374 71.305 11.6415 71.7399 11.0182C72.1748 10.3949 72.7936 9.90883 73.518 9.62159C74.2423 9.33435 75.0397 9.25884 75.809 9.40463C76.5783 9.55042 77.2851 9.91094 77.8397 10.4405C78.3943 10.9701 78.7718 11.645 78.9245 12.3796C79.0772 13.1143 78.9981 13.8757 78.6973 14.5674C78.3965 15.2591 77.8875 15.85 77.2347 16.2652C76.582 16.6805 75.8149 16.9015 75.0306 16.9001C74.5095 16.9056 73.9926 16.8116 73.5101 16.6237C73.0276 16.4359 72.5893 16.1579 72.2208 15.806C71.8524 15.4542 71.5612 15.0356 71.3645 14.5749C71.1677 14.1142 71.0693 13.6205 71.0751 13.123V13.123ZM77.0707 13.123C77.0631 12.7416 76.9377 12.3708 76.7104 12.0571C76.483 11.7434 76.1638 11.5008 75.7927 11.3595C75.4216 11.2183 75.0151 11.1848 74.6241 11.2632C74.2331 11.3416 73.8751 11.5285 73.5948 11.8003C73.3145 12.0722 73.1245 12.4169 73.0485 12.7915C72.9725 13.166 73.014 13.5536 73.1676 13.9057C73.3213 14.2579 73.5804 14.5589 73.9124 14.771C74.2444 14.9832 74.6346 15.0971 75.0341 15.0984C75.306 15.1042 75.5762 15.0569 75.8282 14.9592C76.0801 14.8616 76.3085 14.7158 76.4993 14.5308C76.69 14.3457 76.8391 14.1254 76.9374 13.8833C77.0357 13.6412 77.081 13.3825 77.0707 13.123V13.123Z" fill="var(--fill-0, black)"/>
</g>
</g>
</svg>
