<svg preserveAspectRatio="none" width="100%" height="100%" overflow="visible" style="display: block;" viewBox="0 0 32 32" fill="none" xmlns="http://www.w3.org/2000/svg">
<g id="Frame 1410137284">
<rect x="0.5" y="0.5" width="31" height="31" rx="15.5" fill="var(--fill-0, #FFFEFF)"/>
<rect x="0.5" y="0.5" width="31" height="31" rx="15.5" stroke="var(--stroke-0, #E1E1E1)"/>
<g id="Vector">
<path fill-rule="evenodd" clip-rule="evenodd" d="M22 15.9941C22.0019 16.2204 21.852 16.4179 21.639 16.4696L21.6311 15.525C21.8449 15.573 21.9981 15.7678 22 15.9941ZM18.8221 15.5149C18.46 15.3161 18.1192 15.0822 17.8572 14.8112C17.3074 14.2424 16.9323 13.4165 16.6989 12.7774C16.5794 12.4503 16.4915 12.1563 16.4333 11.9437C16.4042 11.8372 16.3823 11.7505 16.3676 11.6897C16.3603 11.6593 16.3546 11.6353 16.3508 11.6185L16.3463 11.5987L16.3451 11.593L16.3447 11.5912C16.3447 11.5912 16.3444 11.5902 16.8013 11.4843L16.3447 11.5912C16.2882 11.3302 16.4467 11.0703 16.699 11.0118C16.9512 10.9534 17.2014 11.1174 17.258 11.3782L17.2588 11.3815L17.2619 11.3956C17.2649 11.4085 17.2695 11.4283 17.2758 11.4544C17.2885 11.5067 17.3079 11.5838 17.3342 11.6799C17.3869 11.8726 17.4667 12.1395 17.5747 12.4351C17.7961 13.0413 18.1144 13.7076 18.5192 14.1263C18.9189 14.5397 19.6637 14.8933 20.3751 15.1496C20.7191 15.2736 21.0351 15.368 21.2652 15.4314C21.38 15.463 21.4729 15.4867 21.5364 15.5024C21.5681 15.5102 21.5925 15.516 21.6086 15.5198L21.6264 15.524L21.6311 15.525L21.639 16.4696L21.6341 16.4709L21.6161 16.4754C21.5998 16.4795 21.5751 16.4859 21.5431 16.4943C21.479 16.5113 21.3853 16.5369 21.2696 16.5708C21.0377 16.6385 20.7195 16.7387 20.3738 16.8682C19.6585 17.1363 18.9124 17.499 18.52 17.9084C18.1144 18.3315 17.7954 18.9917 17.5736 19.5876C17.4653 19.8785 17.3851 20.1406 17.3321 20.3296C17.3056 20.4238 17.286 20.4994 17.2733 20.5505C17.2669 20.5761 17.2623 20.5955 17.2593 20.6081L17.2561 20.6218L17.2555 20.6246C17.1972 20.8851 16.9458 21.0477 16.694 20.9875C16.442 20.9272 16.285 20.6672 16.3432 20.4066L16.7654 20.5075C16.3432 20.4066 16.3432 20.4066 16.3432 20.4066L16.3435 20.4056L16.3439 20.4038L16.3451 20.3982L16.3497 20.3788C16.3536 20.3622 16.3592 20.3387 16.3667 20.3088C16.3815 20.2491 16.4036 20.1641 16.4329 20.0595C16.4916 19.8507 16.58 19.5617 16.6999 19.2396C16.9344 18.6095 17.3096 17.7955 17.8552 17.2264C18.129 16.9409 18.494 16.6934 18.8803 16.4834L10.4682 16.4855C10.2097 16.4856 10.0001 16.2688 10 16.0014C9.99994 15.734 10.2095 15.5171 10.468 15.517L18.8221 15.5149Z" fill="var(--fill-0, #393737)"/>
<path d="M21.639 16.4696C21.852 16.4179 22.0019 16.2204 22 15.9941C21.9981 15.7678 21.8449 15.573 21.6311 15.525M21.639 16.4696L21.6311 15.525M21.639 16.4696L21.6341 16.4709L21.6161 16.4754C21.5998 16.4795 21.5751 16.4859 21.5431 16.4943C21.479 16.5113 21.3853 16.5369 21.2696 16.5708C21.0377 16.6385 20.7195 16.7387 20.3738 16.8682C19.6585 17.1363 18.9124 17.499 18.52 17.9084C18.1144 18.3315 17.7954 18.9917 17.5736 19.5876C17.4653 19.8785 17.3851 20.1406 17.3321 20.3296C17.3056 20.4238 17.286 20.4994 17.2733 20.5505C17.2669 20.5761 17.2623 20.5955 17.2593 20.6081L17.2561 20.6218L17.2555 20.6246C17.1972 20.8851 16.9458 21.0477 16.694 20.9875C16.442 20.9272 16.285 20.6672 16.3432 20.4066M21.6311 15.525L21.6264 15.524L21.6086 15.5198C21.5925 15.516 21.5681 15.5102 21.5364 15.5024C21.4729 15.4867 21.38 15.463 21.2652 15.4314C21.0351 15.368 20.7191 15.2736 20.3751 15.1496C19.6637 14.8933 18.9189 14.5397 18.5192 14.1263C18.1144 13.7076 17.7961 13.0413 17.5747 12.4351C17.4667 12.1395 17.3869 11.8726 17.3342 11.6799C17.3079 11.5838 17.2885 11.5067 17.2758 11.4544C17.2695 11.4283 17.2649 11.4085 17.2619 11.3956L17.2588 11.3815L17.258 11.3782C17.2014 11.1174 16.9512 10.9534 16.699 11.0118C16.4467 11.0703 16.2882 11.3302 16.3447 11.5912M16.3447 11.5912L16.3451 11.593L16.3463 11.5987L16.3508 11.6185C16.3546 11.6353 16.3603 11.6593 16.3676 11.6897C16.3823 11.7505 16.4042 11.8372 16.4333 11.9437C16.4915 12.1563 16.5794 12.4503 16.6989 12.7774C16.9323 13.4165 17.3074 14.2424 17.8572 14.8112C18.1192 15.0822 18.46 15.3161 18.8221 15.5149L10.468 15.517C10.2095 15.5171 9.99994 15.734 10 16.0014C10.0001 16.2688 10.2097 16.4856 10.4682 16.4855L18.8803 16.4834C18.494 16.6934 18.129 16.9409 17.8552 17.2264C17.3096 17.7955 16.9344 18.6095 16.6999 19.2396C16.58 19.5617 16.4916 19.8507 16.4329 20.0595C16.4036 20.1641 16.3815 20.2491 16.3667 20.3088C16.3592 20.3387 16.3536 20.3622 16.3497 20.3788L16.3451 20.3982L16.3439 20.4038L16.3435 20.4056L16.3432 20.4066M16.3447 11.5912C16.3447 11.5912 16.3444 11.5902 16.8013 11.4843L16.3447 11.5912ZM16.3432 20.4066L16.7654 20.5075C16.3432 20.4066 16.3432 20.4066 16.3432 20.4066Z" stroke="var(--stroke-0, #393737)" stroke-width="0.5"/>
</g>
</g>
</svg>
