<svg preserveAspectRatio="none" width="100%" height="100%" overflow="visible" style="display: block;" viewBox="0 0 12.5 10.5004" fill="none" xmlns="http://www.w3.org/2000/svg">
<g id="Vector">
<path fill-rule="evenodd" clip-rule="evenodd" d="M12.25 5.24432C12.2519 5.47061 12.102 5.66808 11.889 5.71985L11.8811 4.77523C12.0949 4.82322 12.2481 5.01798 12.25 5.24432ZM9.07208 4.76516C8.71002 4.56631 8.36922 4.33237 8.10721 4.06136C7.55739 3.4926 7.18228 2.66669 6.94887 2.02759C6.8294 1.70051 6.74148 1.40649 6.6833 1.19389C6.65418 1.08737 6.63232 1.00073 6.61762 0.939932C6.61027 0.909516 6.60465 0.885522 6.60081 0.868694L6.59632 0.848903L6.5951 0.843203L6.59468 0.841431C6.59468 0.841431 6.59444 0.84039 7.05129 0.734558L6.59468 0.841431C6.53817 0.580451 6.69668 0.320466 6.94896 0.262018C7.20119 0.203593 7.45141 0.36763 7.50805 0.628435L7.50875 0.631733L7.51193 0.645761C7.51488 0.658667 7.51952 0.67854 7.52584 0.704655C7.53848 0.756915 7.55786 0.833998 7.58417 0.930121C7.63688 1.12279 7.71674 1.38972 7.82469 1.6853C8.04612 2.29151 8.36445 2.95779 8.76924 3.37653C9.16888 3.78993 9.91373 4.14346 10.6251 4.39984C10.9691 4.52383 11.2851 4.61822 11.5152 4.68157C11.63 4.71318 11.7229 4.7369 11.7864 4.75258C11.8181 4.76042 11.8425 4.76622 11.8586 4.77L11.8764 4.77416L11.8811 4.77523L11.889 5.71985L11.8841 5.72111L11.8661 5.72561C11.8498 5.72973 11.8251 5.73607 11.7931 5.74455C11.729 5.76154 11.6353 5.78711 11.5196 5.82096C11.2877 5.88871 10.9695 5.9889 10.6238 6.11843C9.90848 6.38646 9.16242 6.74921 8.76999 7.1586C8.36435 7.58173 8.04542 8.24191 7.82362 8.83777C7.71534 9.12876 7.6351 9.39083 7.58206 9.57978C7.55561 9.67402 7.53604 9.74956 7.52331 9.8007C7.51694 9.82627 7.51226 9.84573 7.50931 9.85832L7.50613 9.87203L7.50547 9.87484C7.44719 10.1353 7.1958 10.2979 6.94395 10.2377C6.69205 10.1774 6.53504 9.9174 6.59323 9.65683L7.01543 9.75774C6.59323 9.65683 6.59323 9.65683 6.59323 9.65683L6.59346 9.65576L6.59388 9.65402L6.59515 9.6484L6.59969 9.62898C6.60357 9.61242 6.60924 9.58889 6.61668 9.55901C6.63152 9.49935 6.65357 9.41427 6.68292 9.30967C6.74158 9.10086 6.83001 8.81191 6.9499 8.48984C7.18443 7.85969 7.55959 7.04572 8.1052 6.47663C8.37896 6.19107 8.74401 5.94357 9.13026 5.73365L0.718233 5.73573C0.459693 5.73578 0.250057 5.51903 0.25 5.25158C0.249943 4.98418 0.459486 4.76729 0.718027 4.76724L9.07208 4.76516Z" fill="var(--fill-0, white)"/>
<path d="M11.889 5.71985C12.102 5.66808 12.2519 5.47061 12.25 5.24432C12.2481 5.01798 12.0949 4.82322 11.8811 4.77523M11.889 5.71985L11.8811 4.77523M11.889 5.71985L11.8841 5.72111L11.8661 5.72561C11.8498 5.72973 11.8251 5.73607 11.7931 5.74455C11.729 5.76154 11.6353 5.78711 11.5196 5.82096C11.2877 5.88871 10.9695 5.9889 10.6238 6.11843C9.90848 6.38646 9.16242 6.74921 8.76999 7.1586C8.36435 7.58173 8.04542 8.24191 7.82362 8.83777C7.71534 9.12876 7.6351 9.39083 7.58206 9.57978C7.55561 9.67402 7.53604 9.74956 7.52331 9.8007C7.51694 9.82627 7.51226 9.84573 7.50931 9.85832L7.50613 9.87203L7.50547 9.87484C7.44719 10.1353 7.1958 10.2979 6.94395 10.2377C6.69205 10.1774 6.53504 9.9174 6.59323 9.65683M11.8811 4.77523L11.8764 4.77416L11.8586 4.77C11.8425 4.76622 11.8181 4.76042 11.7864 4.75258C11.7229 4.7369 11.63 4.71318 11.5152 4.68157C11.2851 4.61822 10.9691 4.52383 10.6251 4.39984C9.91373 4.14346 9.16888 3.78993 8.76924 3.37653C8.36445 2.95779 8.04612 2.29151 7.82469 1.6853C7.71674 1.38972 7.63688 1.12279 7.58417 0.930121C7.55786 0.833998 7.53848 0.756915 7.52584 0.704655C7.51952 0.67854 7.51488 0.658667 7.51193 0.645761L7.50875 0.631733L7.50805 0.628435C7.45141 0.36763 7.20119 0.203593 6.94896 0.262018C6.69668 0.320466 6.53817 0.580451 6.59468 0.841431M6.59468 0.841431L6.5951 0.843203L6.59632 0.848903L6.60081 0.868694C6.60465 0.885522 6.61027 0.909516 6.61762 0.939932C6.63232 1.00073 6.65418 1.08737 6.6833 1.19389C6.74148 1.40649 6.8294 1.70051 6.94887 2.02759C7.18228 2.66669 7.55739 3.4926 8.10721 4.06136C8.36922 4.33237 8.71002 4.56631 9.07208 4.76516L0.718027 4.76724C0.459486 4.76729 0.249943 4.98418 0.25 5.25158C0.250057 5.51903 0.459693 5.73578 0.718233 5.73573L9.13026 5.73365C8.74401 5.94357 8.37896 6.19107 8.1052 6.47663C7.55959 7.04572 7.18443 7.85969 6.9499 8.48984C6.83001 8.81191 6.74158 9.10086 6.68292 9.30967C6.65357 9.41427 6.63152 9.49935 6.61668 9.55901C6.60924 9.58889 6.60357 9.61242 6.59969 9.62898L6.59515 9.6484L6.59388 9.65402L6.59346 9.65576L6.59323 9.65683M6.59468 0.841431C6.59468 0.841431 6.59444 0.84039 7.05129 0.734558L6.59468 0.841431ZM6.59323 9.65683L7.01543 9.75774C6.59323 9.65683 6.59323 9.65683 6.59323 9.65683Z" stroke="var(--stroke-0, white)" stroke-width="0.5"/>
</g>
</svg>
