<svg preserveAspectRatio="none" width="100%" height="100%" overflow="visible" style="display: block;" viewBox="0 0 29.5996 16" fill="none" xmlns="http://www.w3.org/2000/svg">
<path id="Logo-wap" d="M19.8818 3.15332C20.483 3.15351 20.9695 3.63478 20.9697 4.22852C20.9697 4.36357 20.9446 4.49261 20.8994 4.61133L18.5625 10.4873C18.5524 10.5122 18.5469 10.5402 18.5469 10.5693C18.5469 10.6938 18.6498 10.7959 18.7764 10.7959H20.0771C20.175 10.7959 20.2596 10.7345 20.292 10.6484L23.2119 3.29004C23.2471 3.20964 23.3286 3.15332 23.4229 3.15332H28.5117C29.1121 3.15358 29.5993 3.63482 29.5996 4.22852C29.5996 4.36355 29.5752 4.49262 29.5293 4.61133L26.5078 12.2158C26.3481 12.6142 25.9551 12.8955 25.4961 12.8955H21.9043C21.8102 12.8955 21.7287 12.9513 21.6934 13.0322L20.5732 15.8555C20.5402 15.9401 20.4564 15.9999 20.3594 16H18.5049C18.3784 15.9998 18.2764 15.8985 18.2764 15.7734C18.2764 15.7445 18.282 15.7178 18.292 15.6924L19.2783 13.2051C19.2884 13.1795 19.2949 13.1515 19.2949 13.123C19.2949 12.9978 19.1911 12.8955 19.0645 12.8955H12.3594C11.7586 12.8955 11.2705 12.4134 11.2705 11.8193C11.2705 11.6843 11.2958 11.5553 11.3418 11.4365L13.083 7.05273C13.2435 6.65651 13.6355 6.37695 14.0938 6.37695H17.6934C17.7905 6.37695 17.8741 6.31706 17.9072 6.23242L18.2002 5.49707C18.211 5.47077 18.2168 5.44196 18.2168 5.41211C18.2168 5.28692 18.1139 5.18561 17.9873 5.18555H14.1631C14.0364 5.18555 13.9336 5.08324 13.9336 4.95801C13.9336 4.9269 13.9398 4.89798 13.9512 4.87109L14.5781 3.29297C14.6126 3.21122 14.6942 3.15341 14.7891 3.15332H19.8818ZM4.87109 0C4.99772 0 5.09961 0.101346 5.09961 0.226562C5.09957 0.252775 5.09551 0.278375 5.08691 0.301758L2.53027 6.77246C2.4771 6.89973 2.44922 7.03785 2.44922 7.18359V9.49609C2.44922 9.55941 2.50047 9.61127 2.56445 9.61133C2.60252 9.61133 2.63733 9.59282 2.6582 9.56445L4.45996 7.09277C4.5103 7.0238 4.55285 6.9488 4.58594 6.86914L7.24414 0.140625C7.27873 0.0582629 7.36073 0 7.45703 0H9.43164C9.55823 0 9.66113 0.101346 9.66113 0.226562C9.66109 0.252775 9.65633 0.278375 9.64844 0.301758L7.02539 6.80469C6.97941 6.92345 6.95508 7.05208 6.95508 7.18652V9.49609C6.95521 9.55929 7.00642 9.61029 7.07031 9.61035C7.10841 9.61035 7.14219 9.59187 7.16309 9.56348L8.99316 7.0918C9.04352 7.0228 9.088 6.94786 9.12109 6.86816L11.7939 0.140625C11.8286 0.0582739 11.9103 0 12.0059 0H13.9941C14.1207 0 14.2236 0.101346 14.2236 0.226562C14.2236 0.252775 14.2188 0.278375 14.2109 0.301758L11.0781 8.18164C11.048 8.26414 11.0069 8.34291 10.958 8.41406L8.20703 12.418C8.01066 12.7052 7.67849 12.8944 7.30176 12.8945L5.00684 12.8955C4.88022 12.8955 4.77734 12.7932 4.77734 12.668V10.915C4.77724 10.8519 4.72519 10.801 4.66211 10.8008C4.62326 10.8008 4.58825 10.8195 4.56738 10.8486L3.14746 12.8018C3.10572 12.8585 3.03782 12.8955 2.96094 12.8955H1.08984C0.487111 12.8955 0.00026461 12.4124 0 11.8164V7.18066C1.30998e-05 7.04623 0.0242974 6.91758 0.0703125 6.79883L2.66992 0.140625C2.70453 0.0575581 2.78627 1.55309e-06 2.88184 0H4.87109ZM15.1162 8.58691C15.0207 8.58709 14.9388 8.64516 14.9043 8.72754L14.2051 10.4883C14.1943 10.5132 14.1895 10.5412 14.1895 10.5703C14.1895 10.6948 14.2924 10.7969 14.4189 10.7969H15.9365C16.035 10.7969 16.12 10.7355 16.1523 10.6494L16.8496 8.89551C16.8596 8.86986 16.8652 8.84268 16.8652 8.81348C16.8652 8.68848 16.7622 8.58712 16.6357 8.58691H15.1162ZM24.9658 5.18555C24.8681 5.18555 24.7834 5.24605 24.751 5.33203L22.7031 10.4883C22.6938 10.5132 22.6885 10.5412 22.6885 10.5703C22.6885 10.6948 22.7914 10.7969 22.918 10.7969H24.4316C24.53 10.7967 24.6134 10.7353 24.6465 10.6494L26.6943 5.49414C26.7037 5.46854 26.71 5.44056 26.71 5.41211C26.7099 5.28695 26.6062 5.18566 26.4805 5.18555H24.9658Z" fill="var(--fill-0, black)"/>
</svg>
