<svg preserveAspectRatio="none" width="100%" height="100%" overflow="visible" style="display: block;" viewBox="0 0 65.059 14" fill="none" xmlns="http://www.w3.org/2000/svg">
<g id="Group 721">
<path id="Vector" d="M10.3256 3.18106C9.44865 2.88299 8.52869 2.72158 7.59982 2.70283C7.59982 2.70283 6.9687 2.68955 6.92376 2.68955C7.52923 2.14604 8.21234 1.69031 8.95194 1.33647L11.2029 3.52265C11.1931 3.51886 10.646 3.29303 10.3256 3.18106ZM10.9274 10.0641C9.81475 10.4236 8.63889 10.5613 7.47018 10.469C6.30147 10.3767 5.16395 10.0564 4.12573 9.52707C4.04562 7.08279 4.76466 4.9877 6.30241 3.30441C6.67061 3.26105 7.04137 3.2414 7.41224 3.24559C8.51135 4.03138 9.403 5.05906 10.014 6.24431C10.6251 7.42957 10.9381 8.73864 10.9274 10.0641V10.0641ZM3.5669 9.21394C3.56938 9.92111 3.63146 10.6269 3.75252 11.3242L0.290153 7.96144C0.104352 7.78063 0 7.53561 0 7.28016C0 7.0247 0.104352 6.77968 0.290153 6.59887L6.90813 0.169368C7.01981 0.060922 7.17127 0 7.3292 0C7.48713 0 7.63859 0.060922 7.75027 0.169368L8.53185 0.928459C7.6139 1.43444 6.77118 2.05948 6.0269 2.78633C6.0269 2.78633 5.66543 3.17727 5.46026 3.43915C4.49307 4.67268 3.56495 6.54953 3.5669 9.21394V9.21394ZM5.92725 13.4364L4.4579 12.0093C4.3185 11.3982 4.2206 10.7788 4.16481 10.1552C6.27114 11.1366 8.681 11.3108 10.9137 10.6429C10.9137 10.6429 11.3397 10.5006 11.4803 10.4513C11.621 10.4019 11.8496 10.307 12.0489 10.2178L8.7331 13.4364C8.36077 13.7973 7.85622 14 7.33018 14C6.80414 14 6.29958 13.7973 5.92725 13.4364V13.4364ZM14.2881 8.04114C13.4875 8.82252 12.5351 9.44176 11.4862 9.86296C11.4677 8.61963 11.1816 7.39381 10.6462 6.26429C10.1108 5.13477 9.33802 4.12654 8.37749 3.30441C9.44646 3.42901 10.4818 3.74767 11.4295 4.24379C12.4397 4.72012 13.4831 5.72212 14.3761 6.60267C14.5598 6.78414 14.6622 7.02874 14.6611 7.28322C14.66 7.53771 14.5555 7.78147 14.3702 7.96144C14.3389 7.98991 14.3116 8.01837 14.2881 8.04114Z" fill="var(--fill-0, #F50052)"/>
<g id="Group 720">
<path id="Vector_2" d="M19.2426 3.2308C19.2414 2.614 19.432 2.01074 19.7901 1.49743C20.1482 0.984113 20.6578 0.583834 21.2544 0.347282C21.8509 0.11073 22.5076 0.0485459 23.1411 0.168606C23.7747 0.288666 24.3567 0.585569 24.8135 1.02171C25.2702 1.45786 25.5811 2.01362 25.7069 2.61863C25.8326 3.22363 25.7675 3.85066 25.5197 4.4203C25.272 4.98993 24.8528 5.47656 24.3153 5.81854C23.7777 6.16053 23.146 6.34249 22.5001 6.34138C22.071 6.34562 21.6455 6.26805 21.2482 6.11323C20.851 5.95841 20.4902 5.72945 20.1868 5.43976C19.8834 5.15007 19.6436 4.80547 19.4815 4.42616C19.3194 4.04685 19.2381 3.64046 19.2426 3.2308V3.2308ZM24.1802 3.2308C24.1844 3.0187 24.1442 2.80793 24.0621 2.61081C23.98 2.4137 23.8575 2.2342 23.7019 2.08279C23.5463 1.93139 23.3606 1.81112 23.1558 1.72902C22.951 1.64692 22.731 1.60463 22.5089 1.60463C22.2867 1.60463 22.0668 1.64692 21.8619 1.72902C21.6571 1.81112 21.4714 1.93139 21.3158 2.08279C21.1602 2.2342 21.0378 2.4137 20.9557 2.61081C20.8735 2.80793 20.8334 3.0187 20.8375 3.2308C20.8334 3.4429 20.8735 3.65367 20.9557 3.85078C21.0378 4.04789 21.1602 4.2274 21.3158 4.3788C21.4714 4.53021 21.6571 4.65048 21.8619 4.73258C22.0668 4.81468 22.2867 4.85696 22.5089 4.85696C22.731 4.85696 22.951 4.81468 23.1558 4.73258C23.3606 4.65048 23.5463 4.53021 23.7019 4.3788C23.8575 4.2274 23.98 4.04789 24.0621 3.85078C24.1442 3.65367 24.1844 3.4429 24.1802 3.2308V3.2308Z" fill="var(--fill-0, #F50052)"/>
<path id="Vector_3" d="M34.8562 2.57291V6.21945H33.23V2.7623C33.23 1.95385 32.7139 1.53831 31.9818 1.53831C31.1866 1.53831 30.5955 1.97646 30.5955 3.01106V6.21662H28.9693V0.280396H30.5955V0.944688C30.8082 0.667519 31.0921 0.445831 31.4207 0.300453C31.7493 0.155076 32.1117 0.0907834 32.4739 0.113617C33.8121 0.113617 34.8562 0.992744 34.8562 2.57291Z" fill="var(--fill-0, #F50052)"/>
<path id="Vector_4" d="M34.9843 3.23091C34.9831 2.61411 35.1736 2.01085 35.5318 1.49754C35.8899 0.984227 36.3995 0.583948 36.9961 0.347396C37.5926 0.110844 38.2492 0.0486601 38.8828 0.16872C39.5164 0.28878 40.0984 0.585683 40.5551 1.02183C41.0119 1.45797 41.3228 2.01374 41.4485 2.61874C41.5742 3.22375 41.5091 3.85077 41.2614 4.42041C41.0137 4.99005 40.5945 5.47667 40.0569 5.81866C39.5194 6.16064 38.8876 6.3426 38.2417 6.34149C37.8127 6.34573 37.3871 6.26817 36.9899 6.11335C36.5927 5.95853 36.2318 5.72957 35.9284 5.43987C35.6251 5.15018 35.3853 4.80558 35.2232 4.42628C35.061 4.04697 34.9798 3.64058 34.9843 3.23091V3.23091ZM39.9189 3.23091C39.9231 3.01881 39.8829 2.80804 39.8008 2.61093C39.7187 2.41382 39.5962 2.23431 39.4406 2.08291C39.285 1.9315 39.0994 1.81123 38.8945 1.72913C38.6897 1.64703 38.4698 1.60475 38.2476 1.60475C38.0254 1.60475 37.8055 1.64703 37.6007 1.72913C37.3958 1.81123 37.2102 1.9315 37.0546 2.08291C36.8989 2.23431 36.7765 2.41382 36.6944 2.61093C36.6123 2.80804 36.5721 3.01881 36.5763 3.23091C36.5721 3.44301 36.6123 3.65378 36.6944 3.8509C36.7765 4.04801 36.8989 4.22751 37.0546 4.37892C37.2102 4.53032 37.3958 4.65059 37.6007 4.73269C37.8055 4.81479 38.0254 4.85708 38.2476 4.85708C38.4698 4.85708 38.6897 4.81479 38.8945 4.73269C39.0994 4.65059 39.285 4.53032 39.4406 4.37892C39.5962 4.22751 39.7187 4.04801 39.8008 3.8509C39.8829 3.65378 39.9231 3.44301 39.9189 3.23091V3.23091Z" fill="var(--fill-0, #F50052)"/>
<path id="Vector_5" d="M47.2702 0.232014L44.9628 6.22014H43.1787L40.8713 0.232014H42.5946L44.0635 4.42371L45.544 0.232014H47.2702Z" fill="var(--fill-0, #F50052)"/>
<path id="Vector_6" d="M46.6301 3.23091C46.6289 2.61411 46.8194 2.01085 47.1776 1.49754C47.5357 0.984227 48.0453 0.583948 48.6419 0.347396C49.2384 0.110844 49.895 0.0486601 50.5286 0.16872C51.1622 0.28878 51.7442 0.585683 52.2009 1.02183C52.6577 1.45797 52.9686 2.01374 53.0943 2.61874C53.2201 3.22375 53.1549 3.85077 52.9072 4.42041C52.6595 4.99005 52.2403 5.47667 51.7028 5.81866C51.1652 6.16064 50.5335 6.3426 49.8875 6.34149C49.4585 6.34573 49.0329 6.26817 48.6357 6.11335C48.2385 5.95853 47.8776 5.72957 47.5743 5.43987C47.2709 5.15018 47.0311 4.80558 46.869 4.42628C46.7068 4.04697 46.6256 3.64058 46.6301 3.23091V3.23091ZM51.5647 3.23091C51.5689 3.01881 51.5287 2.80804 51.4466 2.61093C51.3645 2.41382 51.2421 2.23431 51.0864 2.08291C50.9308 1.9315 50.7452 1.81123 50.5403 1.72913C50.3355 1.64703 50.1156 1.60475 49.8934 1.60475C49.6712 1.60475 49.4513 1.64703 49.2465 1.72913C49.0416 1.81123 48.856 1.9315 48.7004 2.08291C48.5448 2.23431 48.4223 2.41382 48.3402 2.61093C48.2581 2.80804 48.2179 3.01881 48.2221 3.23091C48.2179 3.44301 48.2581 3.65378 48.3402 3.8509C48.4223 4.04801 48.5448 4.22751 48.7004 4.37892C48.856 4.53032 49.0416 4.65059 49.2465 4.73269C49.4513 4.81479 49.6712 4.85708 49.8934 4.85708C50.1156 4.85708 50.3355 4.81479 50.5403 4.73269C50.7452 4.65059 50.9308 4.53032 51.0864 4.37892C51.2421 4.22751 51.3645 4.04801 51.4466 3.8509C51.5287 3.65378 51.5689 3.44301 51.5647 3.23091V3.23091Z" fill="var(--fill-0, #F50052)"/>
<path id="Vector_7" d="M28.4568 10.1349V13.7967H26.855V10.2424C26.855 9.5406 26.4827 9.11329 25.8119 9.11329C25.1056 9.11329 24.6564 9.56607 24.6564 10.4575V13.7967H23.0546V10.2424C23.0546 9.5406 22.6823 9.11329 22.0114 9.11329C21.3288 9.11329 20.8441 9.56607 20.8441 10.4575V13.7967H19.2424V7.85401H20.8441V8.48507C21.0369 8.22241 21.2968 8.01143 21.5989 7.87223C21.901 7.73303 22.2353 7.67025 22.57 7.68988C22.9056 7.67301 23.2398 7.74356 23.5369 7.89405C23.8341 8.04453 24.083 8.26932 24.2574 8.54449C24.4652 8.26388 24.7438 8.0383 25.0674 7.88884C25.3909 7.73938 25.7487 7.67093 26.1074 7.68988C27.5259 7.68422 28.4568 8.6492 28.4568 10.1349Z" fill="var(--fill-0, #F50052)"/>
<path id="Vector_8" d="M32.0035 12.5372C32.2663 12.5471 32.5279 12.499 32.768 12.3968C33.0081 12.2945 33.2202 12.1408 33.3878 11.9475L34.6748 12.6551C34.3726 13.0645 33.9669 13.3946 33.4954 13.6149C33.0238 13.8353 32.5016 13.9388 31.977 13.9158C29.8977 13.9158 28.5871 12.5596 28.5871 10.802C28.572 10.3892 28.6461 9.97781 28.8048 9.59349C28.9636 9.20916 29.2036 8.8601 29.51 8.56802C29.8164 8.27594 30.1825 8.0471 30.5857 7.89574C30.9888 7.74438 31.4203 7.67374 31.8533 7.68821C33.6853 7.68821 34.9841 9.06681 34.9841 10.802C34.9836 11.0121 34.9629 11.2216 34.9222 11.4281H30.2571C30.4809 12.2059 31.1642 12.5372 32.0035 12.5372ZM33.3907 10.2489C33.3296 9.90691 33.1404 9.59773 32.8581 9.37877C32.5759 9.15982 32.2199 9.04597 31.8563 9.05838C31.4803 9.0335 31.1077 9.14093 30.8092 9.36032C30.5107 9.57972 30.3069 9.89585 30.2364 10.2489H33.3907Z" fill="var(--fill-0, #F50052)"/>
<path id="Vector_9" d="M38.6956 7.68982V9.41469C37.8727 9.31775 36.8273 9.67698 36.8273 10.9343V13.7967H35.2402V7.80957H36.8273V8.83878C36.9754 8.48056 37.2356 8.17682 37.5709 7.9706C37.9062 7.76437 38.2997 7.66614 38.6956 7.68982Z" fill="var(--fill-0, #F50052)"/>
<path id="Vector_10" d="M38.696 10.8031C38.6859 10.3913 38.7647 9.98185 38.9274 9.59952C39.0902 9.2172 39.3336 8.86991 39.643 8.57866C39.9524 8.28741 40.3213 8.05824 40.7274 7.90501C41.1335 7.75179 41.5684 7.67768 42.0058 7.68717C42.5766 7.67766 43.1393 7.81432 43.634 8.08254C44.1286 8.35075 44.5366 8.74045 44.8142 9.21L43.4234 9.97703C43.2888 9.73169 43.083 9.52731 42.83 9.38757C42.577 9.24784 42.2871 9.17847 41.9939 9.18752C41.5459 9.1954 41.119 9.36848 40.8051 9.66954C40.4913 9.9706 40.3154 10.3756 40.3154 10.7974C40.3154 11.2193 40.4913 11.6243 40.8051 11.9253C41.119 12.2264 41.5459 12.3995 41.9939 12.4074C42.2879 12.4201 42.5797 12.3537 42.835 12.2158C43.0903 12.078 43.2986 11.8745 43.4354 11.6291L44.8381 12.3849C44.4713 12.9737 43.9087 13.4323 43.2372 13.6897C42.5657 13.9471 41.8228 13.989 41.1234 13.8089C40.4241 13.6288 39.8073 13.2367 39.3685 12.6933C38.9297 12.15 38.6933 11.4856 38.696 10.8031V10.8031Z" fill="var(--fill-0, #F50052)"/>
<path id="Vector_11" d="M51.3653 7.85424V13.751H49.7916V13.0546C49.5525 13.3382 49.2482 13.5639 48.9028 13.7135C48.5575 13.8632 48.1808 13.9327 47.8028 13.9166C46.1798 13.9166 44.8384 12.5604 44.8384 10.8026C44.8384 9.04481 46.1798 7.68857 47.8028 7.68857C48.1808 7.67273 48.5574 7.7424 48.9027 7.89205C49.2479 8.0417 49.5523 8.2672 49.7916 8.55061V7.85424H51.3653ZM49.7916 10.8026C49.7958 10.5854 49.7552 10.3696 49.6721 10.1678C49.5891 9.96605 49.4653 9.78228 49.3079 9.62728C49.1506 9.47229 48.9629 9.34916 48.7558 9.26512C48.5488 9.18107 48.3264 9.13778 48.1019 9.13778C47.8773 9.13778 47.6549 9.18107 47.4479 9.26512C47.2408 9.34916 47.0531 9.47229 46.8958 9.62728C46.7384 9.78228 46.6146 9.96605 46.5316 10.1678C46.4485 10.3696 46.4079 10.5854 46.4121 10.8026C46.4079 11.0198 46.4485 11.2355 46.5316 11.4373C46.6146 11.6391 46.7384 11.8229 46.8958 11.9779C47.0531 12.1329 47.2408 12.256 47.4479 12.3401C47.6549 12.4241 47.8773 12.4674 48.1019 12.4674C48.3264 12.4674 48.5488 12.4241 48.7558 12.3401C48.9629 12.256 49.1506 12.1329 49.3079 11.9779C49.4653 11.8229 49.5891 11.6391 49.6721 11.4373C49.7552 11.2355 49.7958 11.0198 49.7916 10.8026Z" fill="var(--fill-0, #F50052)"/>
<path id="Vector_12" d="M58.276 5.48828V13.7518H56.6708V13.0547C56.4315 13.3401 56.124 13.5672 55.7738 13.7173C55.4236 13.8673 55.0407 13.936 54.6569 13.9176C52.9895 13.9176 51.6212 12.56 51.6212 10.8005C51.6212 9.04102 52.9895 7.68345 54.6569 7.68345C55.0408 7.66412 55.424 7.73237 55.7744 7.88251C56.1248 8.03264 56.4322 8.26027 56.6708 8.54634V5.48828H58.276ZM56.6708 10.8005C56.6751 10.5832 56.6336 10.3672 56.5489 10.1652C56.4642 9.96317 56.3379 9.77922 56.1774 9.62407C56.0169 9.46892 55.8255 9.34567 55.6142 9.26155C55.403 9.17742 55.1762 9.13409 54.9471 9.13409C54.718 9.13409 54.4913 9.17742 54.28 9.26155C54.0688 9.34567 53.8773 9.46892 53.7168 9.62407C53.5564 9.77922 53.4301 9.96317 53.3454 10.1652C53.2606 10.3672 53.2192 10.5832 53.2234 10.8005C53.2192 11.0179 53.2606 11.2339 53.3454 11.4359C53.4301 11.6379 53.5564 11.8218 53.7168 11.977C53.8773 12.1321 54.0688 12.2554 54.28 12.3395C54.4913 12.4236 54.718 12.467 54.9471 12.467C55.1762 12.467 55.403 12.4236 55.6142 12.3395C55.8255 12.2554 56.0169 12.1321 56.1774 11.977C56.3379 11.8218 56.4642 11.6379 56.5489 11.4359C56.6336 11.2339 56.6751 11.0179 56.6708 10.8005V10.8005Z" fill="var(--fill-0, #F50052)"/>
<path id="Vector_13" d="M58.5322 10.8081C58.5311 10.1913 58.7216 9.58809 59.0797 9.07478C59.4379 8.56147 59.9475 8.16119 60.544 7.92464C61.1405 7.68809 61.7972 7.62591 62.4308 7.74597C63.0643 7.86603 63.6463 8.16293 64.1031 8.59907C64.5598 9.03521 64.8707 9.59098 64.9965 10.196C65.1222 10.801 65.0571 11.428 64.8093 11.9976C64.5616 12.5673 64.1424 13.0539 63.6049 13.3959C63.0673 13.7379 62.4356 13.9198 61.7897 13.9187C61.3606 13.9232 60.9349 13.8458 60.5375 13.6911C60.1402 13.5364 59.7792 13.3074 59.4758 13.0177C59.1724 12.728 58.9326 12.3833 58.7706 12.0038C58.6085 11.6244 58.5275 11.2179 58.5322 10.8081V10.8081ZM63.4698 10.8081C63.4635 10.494 63.3603 10.1887 63.1731 9.93036C62.9858 9.67203 62.7229 9.47219 62.4173 9.35589C62.1117 9.2396 61.7769 9.212 61.4549 9.27657C61.133 9.34114 60.8381 9.495 60.6073 9.71888C60.3765 9.94276 60.22 10.2267 60.1574 10.5351C60.0948 10.8436 60.1289 11.1628 60.2555 11.4527C60.3821 11.7427 60.5954 11.9906 60.8688 12.1653C61.1423 12.3401 61.4636 12.4338 61.7926 12.435C62.0165 12.4397 62.239 12.4007 62.4465 12.3203C62.654 12.24 62.8421 12.1199 62.9992 11.9675C63.1563 11.8151 63.2791 11.6337 63.36 11.4343C63.441 11.2349 63.4783 11.0218 63.4698 10.8081V10.8081Z" fill="var(--fill-0, #F50052)"/>
</g>
</g>
</svg>
