<svg preserveAspectRatio="none" width="100%" height="100%" overflow="visible" style="display: block;" viewBox="0 0 18 18" fill="none" xmlns="http://www.w3.org/2000/svg">
<g id="Frame 37">
<rect width="18" height="18" rx="5" fill="var(--fill-0, black)"/>
<path id="&#244;&#128;&#137;&#137;" d="M7.07874 6.44356C6.90376 6.44356 6.77778 6.41106 6.70079 6.34607C6.6308 6.28107 6.5958 6.1583 6.5958 5.97777V5.38198C6.5958 5.20144 6.6308 5.07868 6.70079 5.01368C6.77778 4.94147 6.90376 4.90536 7.07874 4.90536H7.65617C7.83115 4.90536 7.95013 4.94147 8.01312 5.01368C8.08311 5.07868 8.11811 5.20144 8.11811 5.38198V5.97777C8.11811 6.1583 8.08311 6.28107 8.01312 6.34607C7.95013 6.41106 7.83115 6.44356 7.65617 6.44356H7.07874ZM10.3438 6.44356C10.1689 6.44356 10.0464 6.41106 9.97638 6.34607C9.91339 6.28107 9.88189 6.1583 9.88189 5.97777V5.38198C9.88189 5.20144 9.91339 5.07868 9.97638 5.01368C10.0464 4.94147 10.1689 4.90536 10.3438 4.90536H10.9318C11.1067 4.90536 11.2292 4.94147 11.2992 5.01368C11.3692 5.07868 11.4042 5.20144 11.4042 5.38198V5.97777C11.4042 6.1583 11.3692 6.28107 11.2992 6.34607C11.2292 6.41106 11.1067 6.44356 10.9318 6.44356H10.3438ZM13.6194 6.44356C13.4374 6.44356 13.3115 6.41106 13.2415 6.34607C13.1785 6.28107 13.147 6.1583 13.147 5.97777V5.38198C13.147 5.20144 13.1785 5.07868 13.2415 5.01368C13.3115 4.94147 13.4374 4.90536 13.6194 4.90536H14.2074C14.3823 4.90536 14.5013 4.94147 14.5643 5.01368C14.6343 5.07868 14.6693 5.20144 14.6693 5.38198V5.97777C14.6693 6.1583 14.6343 6.28107 14.5643 6.34607C14.5013 6.41106 14.3823 6.44356 14.2074 6.44356H13.6194ZM3.80315 9.77993C3.62117 9.77993 3.49519 9.74743 3.4252 9.68244C3.3622 9.61022 3.33071 9.48385 3.33071 9.30331V8.69669C3.33071 8.51615 3.3622 8.39339 3.4252 8.32839C3.49519 8.2634 3.62117 8.2309 3.80315 8.2309H4.38058C4.56256 8.2309 4.68504 8.2634 4.74803 8.32839C4.81802 8.39339 4.85302 8.51615 4.85302 8.69669V9.30331C4.85302 9.48385 4.81802 9.61022 4.74803 9.68244C4.68504 9.74743 4.56256 9.77993 4.38058 9.77993H3.80315ZM7.07874 9.77993C6.90376 9.77993 6.77778 9.74743 6.70079 9.68244C6.6308 9.61022 6.5958 9.48385 6.5958 9.30331V8.69669C6.5958 8.51615 6.6308 8.39339 6.70079 8.32839C6.77778 8.2634 6.90376 8.2309 7.07874 8.2309H7.65617C7.83115 8.2309 7.95013 8.2634 8.01312 8.32839C8.08311 8.39339 8.11811 8.51615 8.11811 8.69669V9.30331C8.11811 9.48385 8.08311 9.61022 8.01312 9.68244C7.95013 9.74743 7.83115 9.77993 7.65617 9.77993H7.07874ZM10.3438 9.77993C10.1689 9.77993 10.0464 9.74743 9.97638 9.68244C9.91339 9.61022 9.88189 9.48385 9.88189 9.30331V8.69669C9.88189 8.51615 9.91339 8.39339 9.97638 8.32839C10.0464 8.2634 10.1689 8.2309 10.3438 8.2309H10.9318C11.1067 8.2309 11.2292 8.2634 11.2992 8.32839C11.3692 8.39339 11.4042 8.51615 11.4042 8.69669V9.30331C11.4042 9.48385 11.3692 9.61022 11.2992 9.68244C11.2292 9.74743 11.1067 9.77993 10.9318 9.77993H10.3438ZM13.6194 9.77993C13.4374 9.77993 13.3115 9.74743 13.2415 9.68244C13.1785 9.61022 13.147 9.48385 13.147 9.30331V8.69669C13.147 8.51615 13.1785 8.39339 13.2415 8.32839C13.3115 8.2634 13.4374 8.2309 13.6194 8.2309H14.2074C14.3823 8.2309 14.5013 8.2634 14.5643 8.32839C14.6343 8.39339 14.6693 8.51615 14.6693 8.69669V9.30331C14.6693 9.48385 14.6343 9.61022 14.5643 9.68244C14.5013 9.74743 14.3823 9.77993 14.2074 9.77993H13.6194ZM3.80315 13.0946C3.62117 13.0946 3.49519 13.0621 3.4252 12.9971C3.3622 12.9322 3.33071 12.8094 3.33071 12.6288V12.0331C3.33071 11.8453 3.3622 11.7189 3.4252 11.6539C3.49519 11.5889 3.62117 11.5564 3.80315 11.5564H4.38058C4.56256 11.5564 4.68504 11.5889 4.74803 11.6539C4.81802 11.7189 4.85302 11.8453 4.85302 12.0331V12.6288C4.85302 12.8094 4.81802 12.9322 4.74803 12.9971C4.68504 13.0621 4.56256 13.0946 4.38058 13.0946H3.80315ZM7.07874 13.0946C6.90376 13.0946 6.77778 13.0621 6.70079 12.9971C6.6308 12.9322 6.5958 12.8094 6.5958 12.6288V12.0331C6.5958 11.8453 6.6308 11.7189 6.70079 11.6539C6.77778 11.5889 6.90376 11.5564 7.07874 11.5564H7.65617C7.83115 11.5564 7.95013 11.5889 8.01312 11.6539C8.08311 11.7189 8.11811 11.8453 8.11811 12.0331V12.6288C8.11811 12.8094 8.08311 12.9322 8.01312 12.9971C7.95013 13.0621 7.83115 13.0946 7.65617 13.0946H7.07874ZM10.3438 13.0946C10.1689 13.0946 10.0464 13.0621 9.97638 12.9971C9.91339 12.9322 9.88189 12.8094 9.88189 12.6288V12.0331C9.88189 11.8453 9.91339 11.7189 9.97638 11.6539C10.0464 11.5889 10.1689 11.5564 10.3438 11.5564H10.9318C11.1067 11.5564 11.2292 11.5889 11.2992 11.6539C11.3692 11.7189 11.4042 11.8453 11.4042 12.0331V12.6288C11.4042 12.8094 11.3692 12.9322 11.2992 12.9971C11.2292 13.0621 11.1067 13.0946 10.9318 13.0946H10.3438Z" fill="var(--fill-0, white)"/>
</g>
</svg>
