<svg preserveAspectRatio="none" width="100%" height="100%" overflow="visible" style="display: block;" viewBox="0 0 213.121 46.7852" fill="none" xmlns="http://www.w3.org/2000/svg">
<g id="Union" filter="url(#filter0_ii_0_4)">
<path d="M70.4248 11.0732C73.3261 11.0733 75.9077 11.5844 78.1689 12.6084C80.4302 13.6324 82.2649 15.1045 83.6729 17.0244C85.1235 18.9017 86.019 21.206 86.3604 23.9365L77.9131 24.3848C77.5718 22.2088 76.7178 20.5664 75.3525 19.457C74.0299 18.3051 72.3874 17.7285 70.4248 17.7285C67.7795 17.7285 65.7309 18.7311 64.2803 20.7363C62.8296 22.699 62.1045 25.4301 62.1045 28.9287C62.1045 32.4699 62.8298 35.2219 64.2803 37.1846C65.7309 39.1472 67.7795 40.1289 70.4248 40.1289C72.4301 40.1289 74.0944 39.5524 75.417 38.4004C76.7821 37.2484 77.6144 35.4562 77.9131 33.0244L86.3604 33.4092C86.019 36.1397 85.1442 38.5075 83.7363 40.5127C82.3283 42.518 80.4937 44.0753 78.2324 45.1846C75.9712 46.2512 73.3687 46.7851 70.4248 46.7852C67.0115 46.7852 64.0457 46.0591 61.5283 44.6084C59.0112 43.1151 57.0485 41.0247 55.6406 38.3369C54.2753 35.6489 53.5928 32.5127 53.5928 28.9287C53.5928 25.3448 54.2754 22.2302 55.6406 19.585C57.0486 16.897 59.0111 14.8058 61.5283 13.3125C64.0457 11.8192 67.0115 11.0732 70.4248 11.0732ZM123.616 11.0732C126.987 11.0732 129.931 11.8192 132.448 13.3125C134.966 14.7632 136.907 16.8325 138.272 19.5205C139.68 22.1658 140.384 25.3021 140.384 28.9287C140.384 32.5127 139.68 35.6489 138.272 38.3369C136.907 41.0248 134.965 43.1151 132.448 44.6084C129.931 46.0591 126.987 46.7852 123.616 46.7852C120.246 46.7852 117.28 46.0591 114.72 44.6084C112.203 43.1151 110.24 41.0247 108.832 38.3369C107.467 35.6489 106.784 32.5127 106.784 28.9287C106.784 25.3021 107.467 22.1658 108.832 19.5205C110.24 16.8327 112.203 14.7631 114.72 13.3125C117.28 11.8192 120.246 11.0732 123.616 11.0732ZM21.5039 36.7363L34.1758 0.577148H42.9443L26.4316 46.0166H16.4482L0 0.577148H8.76855L21.5039 36.7363ZM51.6045 46.0166H43.4121V11.8408H51.6045V46.0166ZM98.8574 11.8408H107.881V18.1768H98.8574V35.457C98.8575 37.0356 99.1982 38.1452 99.8809 38.7852C100.564 39.3825 101.63 39.6806 103.081 39.6807H107.881V46.0166H100.585C97.1717 46.0166 94.6545 45.2271 93.0332 43.6484C91.4547 42.0698 90.665 39.5951 90.665 36.2246V18.1768H85.2891V11.8408H90.665V3.84082H98.8574V11.8408ZM149.685 17.3945C150.229 15.5198 150.988 14.0821 151.96 13.0811C153.411 11.5877 155.374 10.8408 157.849 10.8408H160.984V17.8809H157.784C156.035 17.8809 154.585 18.1366 153.433 18.6484C152.281 19.1604 151.406 19.9717 150.809 21.0811C150.254 22.1477 149.977 23.5554 149.977 25.3047V46.0166H141.784V10.8408H149.464L149.685 17.3945ZM194.24 0.577148C199.787 0.577148 203.99 1.55789 206.849 3.52051C209.75 5.48311 211.201 8.5978 211.201 12.8643C211.201 14.7843 210.795 16.4702 209.984 17.9209C209.216 19.3288 208.064 20.4384 206.528 21.249C205.267 21.9336 203.777 22.3582 202.06 22.5254C205.442 22.7967 208.083 23.8417 209.984 25.665C212.075 27.6277 213.121 30.2518 213.121 33.5371C213.121 37.7182 211.67 40.8537 208.769 42.9443C205.91 44.9923 201.835 46.0166 196.545 46.0166H177.217V0.577148H194.24ZM123.616 17.7285C120.971 17.7285 118.923 18.7313 117.473 20.7363C116.022 22.699 115.296 25.4301 115.296 28.9287C115.296 32.47 116.022 35.2219 117.473 37.1846C118.923 39.1472 120.971 40.1289 123.616 40.1289C126.262 40.1289 128.288 39.1472 129.696 37.1846C131.147 35.2219 131.872 32.4699 131.872 28.9287C131.872 25.4301 131.147 22.699 129.696 20.7363C128.288 18.7312 126.261 17.7285 123.616 17.7285ZM185.537 38.9766H196.161C198.764 38.9765 200.811 38.4435 202.305 37.377C203.841 36.3103 204.608 34.7313 204.608 32.6406C204.608 30.5502 203.862 28.9501 202.369 27.8408C200.876 26.7316 198.806 26.1768 196.161 26.1768H185.537V38.9766ZM185.537 19.6484H193.984C196.715 19.6484 198.849 19.1363 200.385 18.1123C201.921 17.0883 202.688 15.5953 202.688 13.6328C202.688 11.5848 201.942 10.0702 200.448 9.08887C198.955 8.10763 196.8 7.61621 193.984 7.61621H185.537V19.6484ZM51.7959 7.29688H43.2842V0H51.7959V7.29688Z" fill="var(--fill-0, #2D81FF)" fill-opacity="0.968627"/>
<path d="M70.4248 11.0732C73.3261 11.0733 75.9077 11.5844 78.1689 12.6084C80.4302 13.6324 82.2649 15.1045 83.6729 17.0244C85.1235 18.9017 86.019 21.206 86.3604 23.9365L77.9131 24.3848C77.5718 22.2088 76.7178 20.5664 75.3525 19.457C74.0299 18.3051 72.3874 17.7285 70.4248 17.7285C67.7795 17.7285 65.7309 18.7311 64.2803 20.7363C62.8296 22.699 62.1045 25.4301 62.1045 28.9287C62.1045 32.4699 62.8298 35.2219 64.2803 37.1846C65.7309 39.1472 67.7795 40.1289 70.4248 40.1289C72.4301 40.1289 74.0944 39.5524 75.417 38.4004C76.7821 37.2484 77.6144 35.4562 77.9131 33.0244L86.3604 33.4092C86.019 36.1397 85.1442 38.5075 83.7363 40.5127C82.3283 42.518 80.4937 44.0753 78.2324 45.1846C75.9712 46.2512 73.3687 46.7851 70.4248 46.7852C67.0115 46.7852 64.0457 46.0591 61.5283 44.6084C59.0112 43.1151 57.0485 41.0247 55.6406 38.3369C54.2753 35.6489 53.5928 32.5127 53.5928 28.9287C53.5928 25.3448 54.2754 22.2302 55.6406 19.585C57.0486 16.897 59.0111 14.8058 61.5283 13.3125C64.0457 11.8192 67.0115 11.0732 70.4248 11.0732ZM123.616 11.0732C126.987 11.0732 129.931 11.8192 132.448 13.3125C134.966 14.7632 136.907 16.8325 138.272 19.5205C139.68 22.1658 140.384 25.3021 140.384 28.9287C140.384 32.5127 139.68 35.6489 138.272 38.3369C136.907 41.0248 134.965 43.1151 132.448 44.6084C129.931 46.0591 126.987 46.7852 123.616 46.7852C120.246 46.7852 117.28 46.0591 114.72 44.6084C112.203 43.1151 110.24 41.0247 108.832 38.3369C107.467 35.6489 106.784 32.5127 106.784 28.9287C106.784 25.3021 107.467 22.1658 108.832 19.5205C110.24 16.8327 112.203 14.7631 114.72 13.3125C117.28 11.8192 120.246 11.0732 123.616 11.0732ZM21.5039 36.7363L34.1758 0.577148H42.9443L26.4316 46.0166H16.4482L0 0.577148H8.76855L21.5039 36.7363ZM51.6045 46.0166H43.4121V11.8408H51.6045V46.0166ZM98.8574 11.8408H107.881V18.1768H98.8574V35.457C98.8575 37.0356 99.1982 38.1452 99.8809 38.7852C100.564 39.3825 101.63 39.6806 103.081 39.6807H107.881V46.0166H100.585C97.1717 46.0166 94.6545 45.2271 93.0332 43.6484C91.4547 42.0698 90.665 39.5951 90.665 36.2246V18.1768H85.2891V11.8408H90.665V3.84082H98.8574V11.8408ZM149.685 17.3945C150.229 15.5198 150.988 14.0821 151.96 13.0811C153.411 11.5877 155.374 10.8408 157.849 10.8408H160.984V17.8809H157.784C156.035 17.8809 154.585 18.1366 153.433 18.6484C152.281 19.1604 151.406 19.9717 150.809 21.0811C150.254 22.1477 149.977 23.5554 149.977 25.3047V46.0166H141.784V10.8408H149.464L149.685 17.3945ZM194.24 0.577148C199.787 0.577148 203.99 1.55789 206.849 3.52051C209.75 5.48311 211.201 8.5978 211.201 12.8643C211.201 14.7843 210.795 16.4702 209.984 17.9209C209.216 19.3288 208.064 20.4384 206.528 21.249C205.267 21.9336 203.777 22.3582 202.06 22.5254C205.442 22.7967 208.083 23.8417 209.984 25.665C212.075 27.6277 213.121 30.2518 213.121 33.5371C213.121 37.7182 211.67 40.8537 208.769 42.9443C205.91 44.9923 201.835 46.0166 196.545 46.0166H177.217V0.577148H194.24ZM123.616 17.7285C120.971 17.7285 118.923 18.7313 117.473 20.7363C116.022 22.699 115.296 25.4301 115.296 28.9287C115.296 32.47 116.022 35.2219 117.473 37.1846C118.923 39.1472 120.971 40.1289 123.616 40.1289C126.262 40.1289 128.288 39.1472 129.696 37.1846C131.147 35.2219 131.872 32.4699 131.872 28.9287C131.872 25.4301 131.147 22.699 129.696 20.7363C128.288 18.7312 126.261 17.7285 123.616 17.7285ZM185.537 38.9766H196.161C198.764 38.9765 200.811 38.4435 202.305 37.377C203.841 36.3103 204.608 34.7313 204.608 32.6406C204.608 30.5502 203.862 28.9501 202.369 27.8408C200.876 26.7316 198.806 26.1768 196.161 26.1768H185.537V38.9766ZM185.537 19.6484H193.984C196.715 19.6484 198.849 19.1363 200.385 18.1123C201.921 17.0883 202.688 15.5953 202.688 13.6328C202.688 11.5848 201.942 10.0702 200.448 9.08887C198.955 8.10763 196.8 7.61621 193.984 7.61621H185.537V19.6484ZM51.7959 7.29688H43.2842V0H51.7959V7.29688Z" fill="url(#paint0_radial_0_4)" style="mix-blend-mode:soft-light"/>
</g>
<defs>
<filter id="filter0_ii_0_4" x="0" y="-0.5" width="213.121" height="49.2852" filterUnits="userSpaceOnUse" color-interpolation-filters="sRGB">
<feFlood flood-opacity="0" result="BackgroundImageFix"/>
<feBlend mode="normal" in="SourceGraphic" in2="BackgroundImageFix" result="shape"/>
<feColorMatrix in="SourceAlpha" type="matrix" values="0 0 0 0 0 0 0 0 0 0 0 0 0 0 0 0 0 0 127 0" result="hardAlpha"/>
<feOffset dy="2"/>
<feGaussianBlur stdDeviation="1"/>
<feComposite in2="hardAlpha" operator="arithmetic" k2="-1" k3="1"/>
<feColorMatrix type="matrix" values="0 0 0 0 1 0 0 0 0 1 0 0 0 0 1 0 0 0 1 0"/>
<feBlend mode="soft-light" in2="shape" result="effect1_innerShadow_0_4"/>
<feColorMatrix in="SourceAlpha" type="matrix" values="0 0 0 0 0 0 0 0 0 0 0 0 0 0 0 0 0 0 127 0" result="hardAlpha"/>
<feOffset dy="-0.5"/>
<feGaussianBlur stdDeviation="0.25"/>
<feComposite in2="hardAlpha" operator="arithmetic" k2="-1" k3="1"/>
<feColorMatrix type="matrix" values="0 0 0 0 0 0 0 0 0 0 0 0 0 0 0 0 0 0 0.2 0"/>
<feBlend mode="overlay" in2="effect1_innerShadow_0_4" result="effect2_innerShadow_0_4"/>
</filter>
<radialGradient id="paint0_radial_0_4" cx="0" cy="0" r="1" gradientTransform="matrix(187.998 9 -0.935593 38.7712 2.47977 -1.98334)" gradientUnits="userSpaceOnUse">
<stop stop-color="white"/>
<stop offset="1" stop-color="white" stop-opacity="0.5"/>
</radialGradient>
</defs>
</svg>
