<svg preserveAspectRatio="none" width="100%" height="100%" overflow="visible" style="display: block;" viewBox="0 0 14.4737 17.9998" fill="none" xmlns="http://www.w3.org/2000/svg">
<path id="Vector" d="M9.44862 0.756638C9.71088 0.304212 10.2041 0.00171213 10.7271 0.00138394L12.9323 0C13.6114 0.00112492 14.223 0.179597 14.4353 1.02556C14.4937 1.25835 14.4681 1.6903 14.4681 1.94622L14.468 3.25264L14.4647 12.0371C14.4646 12.1997 14.3325 12.3314 14.1698 12.331C14.0129 12.3306 13.8863 12.2093 13.8849 12.0524C13.875 10.957 13.8845 7.24006 13.8845 6.90033L13.8838 4.80213C13.8841 4.67152 13.8886 4.47312 13.8903 4.26504C13.8946 3.73982 13.494 3.05561 13.2248 3.50661C12.9429 3.97897 12.6693 4.45529 12.3938 4.93189L10.8281 7.63864L6.30994 15.4503C5.94114 16.0429 5.60798 16.6856 5.24601 17.2857C4.98799 17.7134 4.52833 17.9999 4.02882 17.9998L0.713664 17.999C0.171252 17.9989 -0.177727 17.3945 0.0946705 16.9255L1.72081 14.1067L6.37242 6.07115L8.74931 1.96206L9.44862 0.756638Z" fill="var(--fill-0, white)"/>
</svg>
