<svg xmlns="http://www.w3.org/2000/svg" viewBox="0 0 28 28" fill="none">
  <g transform="translate(-4 -3)">
    <path d="M18.0576 4.25C21.4574 4.25172 24.6406 5.56658 27.0381 7.95508C29.3606 10.2689 30.6679 13.3135 30.7461 16.5693L30.75 16.8848C30.7468 23.839 25.0571 29.5097 18.0586 29.5098H18.0527L17.6553 29.5029C15.6675 29.4403 13.7235 28.9147 11.9863 27.9717L11.5527 27.7363L11.0752 27.8613L5.7793 29.2432L7.18359 24.1416L7.32227 23.6367L7.05957 23.1836C5.94818 21.2653 5.36459 19.0897 5.36719 16.876V16.875C5.37012 9.92046 11.0583 4.25055 18.0576 4.25Z" stroke="url(#whatsappStroke)" stroke-opacity="0.4" stroke-width="2.5" />
    <path d="M18.0049 4.47372C11.0953 4.47372 5.47616 10.0906 5.4737 16.9945C5.47029 19.352 6.1342 21.6623 7.38867 23.6584L7.6867 24.1321L6.42104 28.7525L11.1621 27.5094L11.6199 27.7806C13.5426 28.9217 15.7472 29.5251 17.9955 29.5263H18.0002C24.9044 29.5263 30.5236 23.9089 30.5263 17.0045C30.5315 15.3589 30.2102 13.7286 29.581 12.208C28.9518 10.6874 28.0272 9.30664 26.8608 8.14577C25.7008 6.97854 24.3208 6.05299 22.8007 5.42268C21.2806 4.79237 19.6505 4.46982 18.0049 4.47372Z" fill="url(#whatsappFill)" fill-opacity="0.4" />
    <path fill-rule="evenodd" clip-rule="evenodd" d="M14.5739 11.0742C14.3128 10.4968 14.0381 10.4851 13.79 10.4751L13.1223 10.467C12.89 10.467 12.5126 10.5538 12.1935 10.9009C11.8744 11.2479 10.9742 12.0868 10.9742 13.793C10.9742 15.4992 12.2225 17.1478 12.3964 17.3795C12.5704 17.6111 14.8062 21.224 18.347 22.6141C21.2895 23.7692 21.8882 23.5395 22.5272 23.4818C23.1661 23.424 24.5881 22.6429 24.8782 21.8331C25.1683 21.0233 25.1685 20.3295 25.0815 20.1845C24.9946 20.0394 24.7623 19.9532 24.4136 19.7796C24.065 19.6061 22.3526 18.7673 22.0334 18.6514C21.7141 18.5356 21.482 18.4781 21.2495 18.8252C21.017 19.1722 20.3502 19.953 20.1469 20.1845C19.9436 20.4159 19.7407 20.445 19.392 20.2716C19.0434 20.0983 17.9217 19.7319 16.5907 18.5505C15.5552 17.6313 14.8563 16.4961 14.6527 16.1492C14.4492 15.8023 14.6311 15.6144 14.8058 15.4416C14.9622 15.2862 15.1541 15.0366 15.3286 14.8342C15.5031 14.6318 15.5605 14.4872 15.6765 14.2561C15.7925 14.025 15.7347 13.822 15.6475 13.6487C15.5604 13.4753 14.8835 11.7601 14.5739 11.0742Z" fill="white" />
  </g>
  <defs>
    <radialGradient id="whatsappStroke" cx="0" cy="0" r="1" gradientTransform="matrix(-18.4211 39.0526 -54.6914 -23.9415 22.0526 -8.78947)" gradientUnits="userSpaceOnUse">
      <stop offset="0.309213" stop-color="white" />
      <stop offset="0.593551" stop-color="white" stop-opacity="0.1" />
      <stop offset="0.70117" stop-color="white" stop-opacity="0.1" />
      <stop offset="0.880693" stop-color="white" />
    </radialGradient>
    <linearGradient id="whatsappFill" x1="21.3158" y1="30.2632" x2="9.52632" y2="10.7368" gradientUnits="userSpaceOnUse">
      <stop stop-color="white" stop-opacity="0.4" />
      <stop offset="1" stop-color="#202020" />
    </linearGradient>
  </defs>
</svg>
