<svg xmlns="http://www.w3.org/2000/svg" viewBox="0 0 28 28" fill="none">
  <g transform="translate(-4 -3)">
    <rect x="4" y="3" width="28" height="28" rx="8" fill="url(#buttonFill)" fill-opacity="0.2" />
    <rect x="4.5" y="3.5" width="27" height="27" rx="7.5" stroke="url(#buttonStroke)" stroke-opacity="0.2" />
    <path d="M13.6447 24.926C13.6447 25.243 13.386 25.5 13.0668 25.5H10.607C10.2878 25.5 10.0291 25.243 10.0291 24.926V14.6825C10.0291 14.3655 10.2878 14.1085 10.607 14.1085H13.0668C13.386 14.1085 13.6447 14.3655 13.6447 14.6825V24.926ZM11.8369 13.1429C10.5463 13.1429 9.5 12.1035 9.5 10.8214C9.5 9.53935 10.5463 8.5 11.8369 8.5C13.1275 8.5 14.1738 9.53935 14.1738 10.8214C14.1738 12.1035 13.1276 13.1429 11.8369 13.1429ZM26.5 24.9722C26.5 25.2637 26.2621 25.5 25.9687 25.5H23.329C23.0356 25.5 22.7977 25.2637 22.7977 24.9722V20.1674C22.7977 19.4507 23.0094 17.0265 20.9121 17.0265C19.2853 17.0265 18.9553 18.6858 18.8891 19.4304V24.9722C18.8891 25.2637 18.6512 25.5 18.3577 25.5H15.8047C15.5113 25.5 15.2734 25.2637 15.2734 24.9722V14.6363C15.2734 14.3448 15.5113 14.1085 15.8047 14.1085H18.3577C18.6511 14.1085 18.8891 14.3448 18.8891 14.6363C18.8891 14.905 19.2661 15.0304 19.464 14.8486C20.0579 14.3031 20.9104 13.9366 22.2975 13.9366C26.5242 13.9366 26.5 17.8592 26.5 20.0146V24.9722Z" fill="white" />
  </g>
  <defs>
    <linearGradient id="buttonFill" x1="7.74721" y1="31" x2="-2.72786" y2="15.1057" gradientUnits="userSpaceOnUse">
      <stop stop-color="white" />
      <stop offset="1" stop-color="#686868" />
    </linearGradient>
    <radialGradient id="buttonStroke" cx="0" cy="0" r="1" gradientTransform="matrix(-24.8773 -23.038 30.8738 -35.279 30.4387 31)" gradientUnits="userSpaceOnUse">
      <stop offset="0.309213" stop-color="white" />
      <stop offset="0.593551" stop-color="white" stop-opacity="0" />
      <stop offset="0.70117" stop-color="white" stop-opacity="0" />
      <stop offset="0.880693" stop-color="white" />
    </radialGradient>
  </defs>
</svg>
