<svg preserveAspectRatio="none" width="100%" height="100%" overflow="visible" style="display: block;" viewBox="0 0 40 28.0005" fill="none" xmlns="http://www.w3.org/2000/svg">
<g id="Group" filter="url(#filter0_d_3_531)">
<path id="Vector" d="M4 13.0005C4 7.47749 8.477 3.00049 14 3.00049H26C31.523 3.00049 36 7.47749 36 13.0005C36 18.5235 31.523 23.0005 26 23.0005H14C8.477 23.0005 4 18.5235 4 13.0005Z" fill="url(#paint0_linear_3_531)" fill-opacity="0.35"/>
<path id="Vector_2" d="M14 3.5H26C31.247 3.5 35.5 7.753 35.5 13C35.5 18.247 31.247 22.5 26 22.5H14C8.75301 22.5 4.50001 18.247 4.50001 13C4.50001 7.753 8.75301 3.5 14 3.5Z" stroke="url(#paint1_radial_3_531)"/>
</g>
<defs>
<filter id="filter0_d_3_531" x="-56" y="-57" width="152" height="140" filterUnits="userSpaceOnUse" color-interpolation-filters="sRGB">
<feFlood flood-opacity="0" result="BackgroundImageFix"/>
<feColorMatrix in="SourceAlpha" type="matrix" values="0 0 0 0 0 0 0 0 0 0 0 0 0 0 0 0 0 0 127 0" result="hardAlpha"/>
<feOffset dy="1"/>
<feGaussianBlur stdDeviation="2"/>
<feComposite in2="hardAlpha" operator="out"/>
<feColorMatrix type="matrix" values="0 0 0 0 0 0 0 0 0 0 0 0 0 0 0 0 0 0 0.1 0"/>
<feBlend mode="normal" in2="BackgroundImageFix" result="effect1_dropShadow_3_531"/>
<feBlend mode="normal" in="SourceGraphic" in2="effect1_dropShadow_3_531" result="shape"/>
</filter>
<linearGradient id="paint0_linear_3_531" x1="8.283" y1="23.0005" x2="2.548" y2="9.07849" gradientUnits="userSpaceOnUse">
<stop stop-color="white"/>
<stop offset="1" stop-color="#B6B6B6" stop-opacity="0.8"/>
</linearGradient>
<radialGradient id="paint1_radial_3_531" cx="0" cy="0" r="1" gradientTransform="matrix(-28.4312 -16.4557 35.2843 -25.1993 34.216 23)" gradientUnits="userSpaceOnUse">
<stop offset="0.309213" stop-color="white"/>
<stop offset="0.593551" stop-color="white" stop-opacity="0"/>
<stop offset="0.70117" stop-color="white" stop-opacity="0"/>
<stop offset="0.880693" stop-color="white"/>
</radialGradient>
</defs>
</svg>
