<svg width="1200" height="46" viewBox="0 0 1200 46" fill="none" xmlns="http://www.w3.org/2000/svg">
<mask id="mask0_1_746" style="mask-type:alpha" maskUnits="userSpaceOnUse" x="0" y="0" width="1200" height="46">
<rect x="0.5" y="0.5" width="1199" height="45" fill="#D9D9D9" stroke="#E1E1E1"/>
</mask>
<g mask="url(#mask0_1_746)">
<rect x="440" y="-788.982" width="1391" height="938.038" transform="rotate(45 440 -788.982)" stroke="#E1E1E1"/>
<path d="M570.108 -659.582L-93.8923 4.41845" stroke="#E1E1E1"/>
<path d="M575.765 -653.924L-88.2355 10.0757" stroke="#E1E1E1"/>
<path d="M581.421 -648.268L-82.5787 15.7324" stroke="#E1E1E1"/>
<path d="M587.078 -642.611L-76.9218 21.3892" stroke="#E1E1E1"/>
<path d="M592.735 -636.954L-71.2649 27.0459" stroke="#E1E1E1"/>
<path d="M598.392 -631.297L-65.6081 32.7031" stroke="#E1E1E1"/>
<path d="M604.049 -625.64L-59.9512 38.3599" stroke="#E1E1E1"/>
<path d="M609.706 -619.983L-54.2944 44.0166" stroke="#E1E1E1"/>
<path d="M615.362 -614.327L-48.6375 49.6733" stroke="#E1E1E1"/>
<path d="M621.019 -608.669L-42.9806 55.3306" stroke="#E1E1E1"/>
<path d="M626.676 -603.013L-37.3238 60.9873" stroke="#E1E1E1"/>
<path d="M632.333 -597.356L-31.6669 66.644" stroke="#E1E1E1"/>
<path d="M637.99 -591.699L-26.0101 72.3008" stroke="#E1E1E1"/>
<path d="M643.647 -586.042L-20.3533 77.958" stroke="#E1E1E1"/>
<path d="M649.304 -580.385L-14.6964 83.6147" stroke="#E1E1E1"/>
<path d="M654.96 -574.729L-9.03955 89.2715" stroke="#E1E1E1"/>
<path d="M660.617 -569.072L-3.38269 94.9282" stroke="#E1E1E1"/>
<path d="M666.274 -563.415L2.27418 100.585" stroke="#E1E1E1"/>
<path d="M671.931 -557.758L7.93104 106.242" stroke="#E1E1E1"/>
<path d="M677.588 -552.101L13.5879 111.899" stroke="#E1E1E1"/>
<path d="M683.245 -546.444L19.2448 117.556" stroke="#E1E1E1"/>
<path d="M688.902 -540.788L24.9016 123.212" stroke="#E1E1E1"/>
<path d="M694.558 -535.13L30.5584 128.87" stroke="#E1E1E1"/>
<path d="M700.215 -529.474L36.2153 134.526" stroke="#E1E1E1"/>
<path d="M705.872 -523.817L41.8721 140.183" stroke="#E1E1E1"/>
<path d="M711.529 -518.16L47.529 145.84" stroke="#E1E1E1"/>
<path d="M717.186 -512.503L53.1859 151.497" stroke="#E1E1E1"/>
<path d="M722.843 -506.846L58.8427 157.154" stroke="#E1E1E1"/>
<path d="M728.5 -501.189L64.4996 162.811" stroke="#E1E1E1"/>
<path d="M734.156 -495.533L70.1564 168.467" stroke="#E1E1E1"/>
<path d="M739.813 -489.875L75.8133 174.125" stroke="#E1E1E1"/>
<path d="M745.47 -484.219L81.4702 179.781" stroke="#E1E1E1"/>
<path d="M751.127 -478.562L87.127 185.438" stroke="#E1E1E1"/>
<path d="M756.784 -472.905L92.7838 191.095" stroke="#E1E1E1"/>
<path d="M762.441 -467.248L98.4407 196.752" stroke="#E1E1E1"/>
<path d="M768.098 -461.591L104.098 202.409" stroke="#E1E1E1"/>
<path d="M773.754 -455.935L109.754 208.065" stroke="#E1E1E1"/>
<path d="M779.411 -450.278L115.411 213.722" stroke="#E1E1E1"/>
<path d="M785.068 -444.621L121.068 219.379" stroke="#E1E1E1"/>
<path d="M790.725 -438.964L126.725 225.036" stroke="#E1E1E1"/>
<path d="M796.382 -433.307L132.382 230.693" stroke="#E1E1E1"/>
<path d="M802.039 -427.65L138.039 236.35" stroke="#E1E1E1"/>
<path d="M807.695 -421.994L143.696 242.006" stroke="#E1E1E1"/>
<path d="M813.352 -416.336L149.352 247.664" stroke="#E1E1E1"/>
<path d="M819.009 -410.68L155.009 253.32" stroke="#E1E1E1"/>
<path d="M824.666 -405.023L160.666 258.977" stroke="#E1E1E1"/>
<path d="M830.323 -399.366L166.323 264.634" stroke="#E1E1E1"/>
<path d="M835.98 -393.709L171.98 270.291" stroke="#E1E1E1"/>
<path d="M841.637 -388.052L177.637 275.948" stroke="#E1E1E1"/>
<path d="M847.294 -382.396L183.294 281.604" stroke="#E1E1E1"/>
<path d="M852.95 -376.739L188.95 287.261" stroke="#E1E1E1"/>
<path d="M858.607 -371.082L194.607 292.918" stroke="#E1E1E1"/>
<path d="M864.264 -365.425L200.264 298.575" stroke="#E1E1E1"/>
<path d="M869.921 -359.768L205.921 304.232" stroke="#E1E1E1"/>
<path d="M875.578 -354.111L211.578 309.889" stroke="#E1E1E1"/>
<path d="M881.235 -348.454L217.235 315.546" stroke="#E1E1E1"/>
<path d="M886.891 -342.797L222.891 321.203" stroke="#E1E1E1"/>
<path d="M892.548 -337.141L228.548 326.859" stroke="#E1E1E1"/>
<path d="M898.205 -331.484L234.205 332.516" stroke="#E1E1E1"/>
<path d="M903.862 -325.827L239.862 338.173" stroke="#E1E1E1"/>
<path d="M909.519 -320.17L245.519 343.83" stroke="#E1E1E1"/>
<path d="M915.176 -314.513L251.176 349.487" stroke="#E1E1E1"/>
<path d="M920.833 -308.856L256.833 355.144" stroke="#E1E1E1"/>
<path d="M926.49 -303.2L262.49 360.8" stroke="#E1E1E1"/>
<path d="M932.146 -297.542L268.146 366.458" stroke="#E1E1E1"/>
<path d="M937.803 -291.886L273.803 372.114" stroke="#E1E1E1"/>
<path d="M943.46 -286.229L279.46 377.771" stroke="#E1E1E1"/>
<path d="M949.117 -280.572L285.117 383.428" stroke="#E1E1E1"/>
<path d="M954.774 -274.915L290.774 389.085" stroke="#E1E1E1"/>
<path d="M960.431 -269.258L296.431 394.742" stroke="#E1E1E1"/>
<path d="M966.087 -263.602L302.087 400.398" stroke="#E1E1E1"/>
<path d="M971.744 -257.945L307.744 406.055" stroke="#E1E1E1"/>
<path d="M977.401 -252.288L313.401 411.712" stroke="#E1E1E1"/>
<path d="M983.058 -246.631L319.058 417.369" stroke="#E1E1E1"/>
<path d="M988.715 -240.974L324.715 423.026" stroke="#E1E1E1"/>
<path d="M994.372 -235.317L330.372 428.683" stroke="#E1E1E1"/>
<path d="M1000.03 -229.661L336.029 434.339" stroke="#E1E1E1"/>
<path d="M1005.69 -224.003L341.685 439.997" stroke="#E1E1E1"/>
<path d="M1011.34 -218.347L347.342 445.653" stroke="#E1E1E1"/>
<path d="M1017 -212.69L352.999 451.31" stroke="#E1E1E1"/>
<path d="M1022.66 -207.033L358.656 456.967" stroke="#E1E1E1"/>
<path d="M1028.31 -201.376L364.313 462.624" stroke="#E1E1E1"/>
<path d="M1033.97 -195.719L369.97 468.281" stroke="#E1E1E1"/>
<path d="M1039.63 -190.062L375.627 473.937" stroke="#E1E1E1"/>
<path d="M1045.28 -184.406L381.283 479.594" stroke="#E1E1E1"/>
<path d="M1050.94 -178.749L386.94 485.251" stroke="#E1E1E1"/>
<path d="M1056.6 -173.092L392.597 490.908" stroke="#E1E1E1"/>
<path d="M1062.25 -167.435L398.254 496.565" stroke="#E1E1E1"/>
<path d="M1067.91 -161.778L403.911 502.222" stroke="#E1E1E1"/>
<path d="M1073.57 -156.121L409.568 507.879" stroke="#E1E1E1"/>
<path d="M1079.22 -150.464L415.224 513.536" stroke="#E1E1E1"/>
<path d="M1084.88 -144.808L420.881 519.192" stroke="#E1E1E1"/>
<path d="M1090.54 -139.151L426.538 524.849" stroke="#E1E1E1"/>
<path d="M1096.2 -133.494L432.195 530.506" stroke="#E1E1E1"/>
<path d="M1101.85 -127.837L437.852 536.163" stroke="#E1E1E1"/>
<path d="M1107.51 -122.18L443.509 541.82" stroke="#E1E1E1"/>
<path d="M1113.17 -116.523L449.166 547.477" stroke="#E1E1E1"/>
<path d="M1118.82 -110.867L454.823 553.133" stroke="#E1E1E1"/>
<path d="M1124.48 -105.209L460.479 558.791" stroke="#E1E1E1"/>
<path d="M1130.14 -99.5527L466.136 564.447" stroke="#E1E1E1"/>
<path d="M1135.79 -93.896L471.793 570.104" stroke="#E1E1E1"/>
<path d="M1141.45 -88.2393L477.45 575.761" stroke="#E1E1E1"/>
<path d="M1147.11 -82.582L483.107 581.418" stroke="#E1E1E1"/>
<path d="M1152.76 -76.9253L488.764 587.075" stroke="#E1E1E1"/>
<path d="M1158.42 -71.2686L494.421 592.731" stroke="#E1E1E1"/>
<path d="M1164.08 -65.6118L500.077 598.388" stroke="#E1E1E1"/>
<path d="M1169.73 -59.9546L505.734 604.045" stroke="#E1E1E1"/>
<path d="M1175.39 -54.2979L511.391 609.702" stroke="#E1E1E1"/>
<path d="M1181.05 -48.6411L517.048 615.359" stroke="#E1E1E1"/>
<path d="M1186.7 -42.9844L522.705 621.016" stroke="#E1E1E1"/>
<path d="M1192.36 -37.3271L528.362 626.673" stroke="#E1E1E1"/>
<path d="M1198.02 -31.6704L534.018 632.33" stroke="#E1E1E1"/>
<path d="M1203.68 -26.0137L539.675 637.986" stroke="#E1E1E1"/>
<path d="M1209.33 -20.3569L545.332 643.643" stroke="#E1E1E1"/>
<path d="M1214.99 -14.6997L550.989 649.3" stroke="#E1E1E1"/>
<path d="M1220.65 -9.04297L556.646 654.957" stroke="#E1E1E1"/>
<path d="M1226.3 -3.38623L562.303 660.614" stroke="#E1E1E1"/>
<path d="M1231.96 2.27051L567.96 666.271" stroke="#E1E1E1"/>
<path d="M1237.62 7.92725L573.616 671.927" stroke="#E1E1E1"/>
<path d="M1243.27 13.5845L579.273 677.584" stroke="#E1E1E1"/>
<path d="M1248.93 19.2412L584.93 683.241" stroke="#E1E1E1"/>
<path d="M1254.59 24.8979L590.587 688.898" stroke="#E1E1E1"/>
<path d="M1260.24 30.5547L596.244 694.555" stroke="#E1E1E1"/>
<path d="M1265.9 36.2119L601.901 700.212" stroke="#E1E1E1"/>
<path d="M1271.56 41.8687L607.558 705.869" stroke="#E1E1E1"/>
</g>
</svg>
