<svg preserveAspectRatio="none" width="100%" height="100%" overflow="visible" style="display: block;" viewBox="0 0 1393 939.038" fill="none" xmlns="http://www.w3.org/2000/svg">
<g id="Icon Group">
<rect x="1" y="0.5" width="1391" height="938.038" stroke="var(--stroke-0, #E1E1E1)"/>
<path id="Vector 1" d="M0.5 0V939.038" stroke="var(--stroke-0, #E1E1E1)"/>
<path id="Vector 2" d="M8.5 0V939.038" stroke="var(--stroke-0, #E1E1E1)"/>
<path id="Vector 3" d="M16.5 0V939.038" stroke="var(--stroke-0, #E1E1E1)"/>
<path id="Vector 4" d="M24.5 0V939.038" stroke="var(--stroke-0, #E1E1E1)"/>
<path id="Vector 5" d="M32.5 0V939.038" stroke="var(--stroke-0, #E1E1E1)"/>
<path id="Vector 6" d="M40.5 0V939.038" stroke="var(--stroke-0, #E1E1E1)"/>
<path id="Vector 7" d="M48.5 0V939.038" stroke="var(--stroke-0, #E1E1E1)"/>
<path id="Vector 8" d="M56.5 0V939.038" stroke="var(--stroke-0, #E1E1E1)"/>
<path id="Vector 9" d="M64.5 0V939.038" stroke="var(--stroke-0, #E1E1E1)"/>
<path id="Vector 10" d="M72.5 0V939.038" stroke="var(--stroke-0, #E1E1E1)"/>
<path id="Vector 11" d="M80.5 0V939.038" stroke="var(--stroke-0, #E1E1E1)"/>
<path id="Vector 12" d="M88.5 0V939.038" stroke="var(--stroke-0, #E1E1E1)"/>
<path id="Vector 13" d="M96.5 0V939.038" stroke="var(--stroke-0, #E1E1E1)"/>
<path id="Vector 14" d="M104.5 0V939.038" stroke="var(--stroke-0, #E1E1E1)"/>
<path id="Vector 15" d="M112.5 0V939.038" stroke="var(--stroke-0, #E1E1E1)"/>
<path id="Vector 16" d="M120.5 0V939.038" stroke="var(--stroke-0, #E1E1E1)"/>
<path id="Vector 17" d="M128.5 0V939.038" stroke="var(--stroke-0, #E1E1E1)"/>
<path id="Vector 18" d="M136.5 0V939.038" stroke="var(--stroke-0, #E1E1E1)"/>
<path id="Vector 19" d="M144.5 0V939.038" stroke="var(--stroke-0, #E1E1E1)"/>
<path id="Vector 20" d="M152.5 0V939.038" stroke="var(--stroke-0, #E1E1E1)"/>
<path id="Vector 21" d="M160.5 0V939.038" stroke="var(--stroke-0, #E1E1E1)"/>
<path id="Vector 22" d="M168.5 0V939.038" stroke="var(--stroke-0, #E1E1E1)"/>
<path id="Vector 23" d="M176.5 0V939.038" stroke="var(--stroke-0, #E1E1E1)"/>
<path id="Vector 24" d="M184.5 0V939.038" stroke="var(--stroke-0, #E1E1E1)"/>
<path id="Vector 25" d="M192.5 0V939.038" stroke="var(--stroke-0, #E1E1E1)"/>
<path id="Vector 26" d="M200.5 0V939.038" stroke="var(--stroke-0, #E1E1E1)"/>
<path id="Vector 27" d="M208.5 0V939.038" stroke="var(--stroke-0, #E1E1E1)"/>
<path id="Vector 28" d="M216.5 0V939.038" stroke="var(--stroke-0, #E1E1E1)"/>
<path id="Vector 29" d="M224.5 0V939.038" stroke="var(--stroke-0, #E1E1E1)"/>
<path id="Vector 30" d="M232.5 0V939.038" stroke="var(--stroke-0, #E1E1E1)"/>
<path id="Vector 31" d="M240.5 0V939.038" stroke="var(--stroke-0, #E1E1E1)"/>
<path id="Vector 32" d="M248.5 0V939.038" stroke="var(--stroke-0, #E1E1E1)"/>
<path id="Vector 33" d="M256.5 0V939.038" stroke="var(--stroke-0, #E1E1E1)"/>
<path id="Vector 34" d="M264.5 0V939.038" stroke="var(--stroke-0, #E1E1E1)"/>
<path id="Vector 35" d="M272.5 0V939.038" stroke="var(--stroke-0, #E1E1E1)"/>
<path id="Vector 36" d="M280.5 0V939.038" stroke="var(--stroke-0, #E1E1E1)"/>
<path id="Vector 37" d="M288.5 0V939.038" stroke="var(--stroke-0, #E1E1E1)"/>
<path id="Vector 38" d="M296.5 0V939.038" stroke="var(--stroke-0, #E1E1E1)"/>
<path id="Vector 39" d="M304.5 0V939.038" stroke="var(--stroke-0, #E1E1E1)"/>
<path id="Vector 40" d="M312.5 0V939.038" stroke="var(--stroke-0, #E1E1E1)"/>
<path id="Vector 41" d="M320.5 0V939.038" stroke="var(--stroke-0, #E1E1E1)"/>
<path id="Vector 42" d="M328.5 0V939.038" stroke="var(--stroke-0, #E1E1E1)"/>
<path id="Vector 43" d="M336.5 0V939.038" stroke="var(--stroke-0, #E1E1E1)"/>
<path id="Vector 44" d="M344.5 0V939.038" stroke="var(--stroke-0, #E1E1E1)"/>
<path id="Vector 45" d="M352.5 0V939.038" stroke="var(--stroke-0, #E1E1E1)"/>
<path id="Vector 46" d="M360.5 0V939.038" stroke="var(--stroke-0, #E1E1E1)"/>
<path id="Vector 47" d="M368.5 0V939.038" stroke="var(--stroke-0, #E1E1E1)"/>
<path id="Vector 48" d="M376.5 0V939.038" stroke="var(--stroke-0, #E1E1E1)"/>
<path id="Vector 49" d="M384.5 0V939.038" stroke="var(--stroke-0, #E1E1E1)"/>
<path id="Vector 50" d="M392.5 0V939.038" stroke="var(--stroke-0, #E1E1E1)"/>
<path id="Vector 51" d="M400.5 0V939.038" stroke="var(--stroke-0, #E1E1E1)"/>
<path id="Vector 52" d="M408.5 0V939.038" stroke="var(--stroke-0, #E1E1E1)"/>
<path id="Vector 53" d="M416.5 0V939.038" stroke="var(--stroke-0, #E1E1E1)"/>
<path id="Vector 54" d="M424.5 0V939.038" stroke="var(--stroke-0, #E1E1E1)"/>
<path id="Vector 55" d="M432.5 0V939.038" stroke="var(--stroke-0, #E1E1E1)"/>
<path id="Vector 56" d="M440.5 0V939.038" stroke="var(--stroke-0, #E1E1E1)"/>
<path id="Vector 57" d="M448.5 0V939.038" stroke="var(--stroke-0, #E1E1E1)"/>
<path id="Vector 58" d="M456.5 0V939.038" stroke="var(--stroke-0, #E1E1E1)"/>
<path id="Vector 59" d="M464.5 0V939.038" stroke="var(--stroke-0, #E1E1E1)"/>
<path id="Vector 60" d="M472.5 0V939.038" stroke="var(--stroke-0, #E1E1E1)"/>
<path id="Vector 61" d="M480.5 0V939.038" stroke="var(--stroke-0, #E1E1E1)"/>
<path id="Vector 62" d="M488.5 0V939.038" stroke="var(--stroke-0, #E1E1E1)"/>
<path id="Vector 63" d="M496.5 0V939.038" stroke="var(--stroke-0, #E1E1E1)"/>
<path id="Vector 64" d="M504.5 0V939.038" stroke="var(--stroke-0, #E1E1E1)"/>
<path id="Vector 65" d="M512.5 0V939.038" stroke="var(--stroke-0, #E1E1E1)"/>
<path id="Vector 66" d="M520.5 0V939.038" stroke="var(--stroke-0, #E1E1E1)"/>
<path id="Vector 67" d="M528.5 0V939.038" stroke="var(--stroke-0, #E1E1E1)"/>
<path id="Vector 68" d="M536.5 0V939.038" stroke="var(--stroke-0, #E1E1E1)"/>
<path id="Vector 69" d="M544.5 0V939.038" stroke="var(--stroke-0, #E1E1E1)"/>
<path id="Vector 70" d="M552.5 0V939.038" stroke="var(--stroke-0, #E1E1E1)"/>
<path id="Vector 71" d="M560.5 0V939.038" stroke="var(--stroke-0, #E1E1E1)"/>
<path id="Vector 72" d="M568.5 0V939.038" stroke="var(--stroke-0, #E1E1E1)"/>
<path id="Vector 73" d="M576.5 0V939.038" stroke="var(--stroke-0, #E1E1E1)"/>
<path id="Vector 74" d="M584.5 0V939.038" stroke="var(--stroke-0, #E1E1E1)"/>
<path id="Vector 75" d="M592.5 0V939.038" stroke="var(--stroke-0, #E1E1E1)"/>
<path id="Vector 76" d="M600.5 0V939.038" stroke="var(--stroke-0, #E1E1E1)"/>
<path id="Vector 77" d="M608.5 0V939.038" stroke="var(--stroke-0, #E1E1E1)"/>
<path id="Vector 78" d="M616.5 0V939.038" stroke="var(--stroke-0, #E1E1E1)"/>
<path id="Vector 79" d="M624.5 0V939.038" stroke="var(--stroke-0, #E1E1E1)"/>
<path id="Vector 80" d="M632.5 0V939.038" stroke="var(--stroke-0, #E1E1E1)"/>
<path id="Vector 81" d="M640.5 0V939.038" stroke="var(--stroke-0, #E1E1E1)"/>
<path id="Vector 82" d="M648.5 0V939.038" stroke="var(--stroke-0, #E1E1E1)"/>
<path id="Vector 83" d="M656.5 0V939.038" stroke="var(--stroke-0, #E1E1E1)"/>
<path id="Vector 84" d="M664.5 0V939.038" stroke="var(--stroke-0, #E1E1E1)"/>
<path id="Vector 85" d="M672.5 0V939.038" stroke="var(--stroke-0, #E1E1E1)"/>
<path id="Vector 86" d="M680.5 0V939.038" stroke="var(--stroke-0, #E1E1E1)"/>
<path id="Vector 87" d="M688.5 0V939.038" stroke="var(--stroke-0, #E1E1E1)"/>
<path id="Vector 88" d="M696.5 0V939.038" stroke="var(--stroke-0, #E1E1E1)"/>
<path id="Vector 89" d="M704.5 0V939.038" stroke="var(--stroke-0, #E1E1E1)"/>
<path id="Vector 90" d="M712.5 0V939.038" stroke="var(--stroke-0, #E1E1E1)"/>
<path id="Vector 91" d="M720.5 0V939.038" stroke="var(--stroke-0, #E1E1E1)"/>
<path id="Vector 92" d="M728.5 0V939.038" stroke="var(--stroke-0, #E1E1E1)"/>
<path id="Vector 93" d="M736.5 0V939.038" stroke="var(--stroke-0, #E1E1E1)"/>
<path id="Vector 94" d="M744.5 0V939.038" stroke="var(--stroke-0, #E1E1E1)"/>
<path id="Vector 95" d="M752.5 0V939.038" stroke="var(--stroke-0, #E1E1E1)"/>
<path id="Vector 96" d="M760.5 0V939.038" stroke="var(--stroke-0, #E1E1E1)"/>
<path id="Vector 97" d="M768.5 0V939.038" stroke="var(--stroke-0, #E1E1E1)"/>
<path id="Vector 98" d="M776.5 0V939.038" stroke="var(--stroke-0, #E1E1E1)"/>
<path id="Vector 99" d="M784.5 0V939.038" stroke="var(--stroke-0, #E1E1E1)"/>
<path id="Vector 100" d="M792.5 0V939.038" stroke="var(--stroke-0, #E1E1E1)"/>
<path id="Vector 101" d="M800.5 0V939.038" stroke="var(--stroke-0, #E1E1E1)"/>
<path id="Vector 102" d="M808.5 0V939.038" stroke="var(--stroke-0, #E1E1E1)"/>
<path id="Vector 103" d="M816.5 0V939.038" stroke="var(--stroke-0, #E1E1E1)"/>
<path id="Vector 104" d="M824.5 0V939.038" stroke="var(--stroke-0, #E1E1E1)"/>
<path id="Vector 105" d="M832.5 0V939.038" stroke="var(--stroke-0, #E1E1E1)"/>
<path id="Vector 106" d="M840.5 0V939.038" stroke="var(--stroke-0, #E1E1E1)"/>
<path id="Vector 107" d="M848.5 0V939.038" stroke="var(--stroke-0, #E1E1E1)"/>
<path id="Vector 108" d="M856.5 0V939.038" stroke="var(--stroke-0, #E1E1E1)"/>
<path id="Vector 109" d="M864.5 0V939.038" stroke="var(--stroke-0, #E1E1E1)"/>
<path id="Vector 110" d="M872.5 0V939.038" stroke="var(--stroke-0, #E1E1E1)"/>
<path id="Vector 111" d="M880.5 0V939.038" stroke="var(--stroke-0, #E1E1E1)"/>
<path id="Vector 112" d="M888.5 0V939.038" stroke="var(--stroke-0, #E1E1E1)"/>
<path id="Vector 113" d="M896.5 0V939.038" stroke="var(--stroke-0, #E1E1E1)"/>
<path id="Vector 114" d="M904.5 0V939.038" stroke="var(--stroke-0, #E1E1E1)"/>
<path id="Vector 115" d="M912.5 0V939.038" stroke="var(--stroke-0, #E1E1E1)"/>
<path id="Vector 116" d="M920.5 0V939.038" stroke="var(--stroke-0, #E1E1E1)"/>
<path id="Vector 117" d="M928.5 0V939.038" stroke="var(--stroke-0, #E1E1E1)"/>
<path id="Vector 118" d="M936.5 0V939.038" stroke="var(--stroke-0, #E1E1E1)"/>
<path id="Vector 119" d="M944.5 0V939.038" stroke="var(--stroke-0, #E1E1E1)"/>
<path id="Vector 120" d="M952.5 0V939.038" stroke="var(--stroke-0, #E1E1E1)"/>
<path id="Vector 121" d="M960.5 0V939.038" stroke="var(--stroke-0, #E1E1E1)"/>
<path id="Vector 122" d="M968.5 0V939.038" stroke="var(--stroke-0, #E1E1E1)"/>
<path id="Vector 123" d="M976.5 0V939.038" stroke="var(--stroke-0, #E1E1E1)"/>
<path id="Vector 124" d="M984.5 0V939.038" stroke="var(--stroke-0, #E1E1E1)"/>
<path id="Vector 125" d="M992.5 0V939.038" stroke="var(--stroke-0, #E1E1E1)"/>
<path id="Vector 126" d="M1000.5 0V939.038" stroke="var(--stroke-0, #E1E1E1)"/>
<path id="Vector 127" d="M1008.5 0V939.038" stroke="var(--stroke-0, #E1E1E1)"/>
<path id="Vector 128" d="M1016.5 0V939.038" stroke="var(--stroke-0, #E1E1E1)"/>
<path id="Vector 129" d="M1024.5 0V939.038" stroke="var(--stroke-0, #E1E1E1)"/>
<path id="Vector 130" d="M1032.5 0V939.038" stroke="var(--stroke-0, #E1E1E1)"/>
<path id="Vector 131" d="M1040.5 0V939.038" stroke="var(--stroke-0, #E1E1E1)"/>
<path id="Vector 132" d="M1048.5 0V939.038" stroke="var(--stroke-0, #E1E1E1)"/>
<path id="Vector 133" d="M1056.5 0V939.038" stroke="var(--stroke-0, #E1E1E1)"/>
<path id="Vector 134" d="M1064.5 0V939.038" stroke="var(--stroke-0, #E1E1E1)"/>
<path id="Vector 135" d="M1072.5 0V939.038" stroke="var(--stroke-0, #E1E1E1)"/>
<path id="Vector 136" d="M1080.5 0V939.038" stroke="var(--stroke-0, #E1E1E1)"/>
<path id="Vector 137" d="M1088.5 0V939.038" stroke="var(--stroke-0, #E1E1E1)"/>
<path id="Vector 138" d="M1096.5 0V939.038" stroke="var(--stroke-0, #E1E1E1)"/>
<path id="Vector 139" d="M1104.5 0V939.038" stroke="var(--stroke-0, #E1E1E1)"/>
<path id="Vector 140" d="M1112.5 0V939.038" stroke="var(--stroke-0, #E1E1E1)"/>
<path id="Vector 141" d="M1120.5 0V939.038" stroke="var(--stroke-0, #E1E1E1)"/>
<path id="Vector 142" d="M1128.5 0V939.038" stroke="var(--stroke-0, #E1E1E1)"/>
<path id="Vector 143" d="M1136.5 0V939.038" stroke="var(--stroke-0, #E1E1E1)"/>
<path id="Vector 144" d="M1144.5 0V939.038" stroke="var(--stroke-0, #E1E1E1)"/>
<path id="Vector 145" d="M1152.5 0V939.038" stroke="var(--stroke-0, #E1E1E1)"/>
<path id="Vector 146" d="M1160.5 0V939.038" stroke="var(--stroke-0, #E1E1E1)"/>
<path id="Vector 147" d="M1168.5 0V939.038" stroke="var(--stroke-0, #E1E1E1)"/>
<path id="Vector 148" d="M1176.5 0V939.038" stroke="var(--stroke-0, #E1E1E1)"/>
<path id="Vector 149" d="M1184.5 0V939.038" stroke="var(--stroke-0, #E1E1E1)"/>
<path id="Vector 150" d="M1192.5 0V939.038" stroke="var(--stroke-0, #E1E1E1)"/>
<path id="Vector 151" d="M1200.5 0V939.038" stroke="var(--stroke-0, #E1E1E1)"/>
<path id="Vector 152" d="M1208.5 0V939.038" stroke="var(--stroke-0, #E1E1E1)"/>
<path id="Vector 153" d="M1216.5 0V939.038" stroke="var(--stroke-0, #E1E1E1)"/>
<path id="Vector 154" d="M1224.5 0V939.038" stroke="var(--stroke-0, #E1E1E1)"/>
<path id="Vector 155" d="M1232.5 0V939.038" stroke="var(--stroke-0, #E1E1E1)"/>
<path id="Vector 156" d="M1240.5 0V939.038" stroke="var(--stroke-0, #E1E1E1)"/>
<path id="Vector 157" d="M1248.5 0V939.038" stroke="var(--stroke-0, #E1E1E1)"/>
<path id="Vector 158" d="M1256.5 0V939.038" stroke="var(--stroke-0, #E1E1E1)"/>
<path id="Vector 159" d="M1264.5 0V939.038" stroke="var(--stroke-0, #E1E1E1)"/>
<path id="Vector 160" d="M1272.5 0V939.038" stroke="var(--stroke-0, #E1E1E1)"/>
<path id="Vector 161" d="M1280.5 0V939.038" stroke="var(--stroke-0, #E1E1E1)"/>
<path id="Vector 162" d="M1288.5 0V939.038" stroke="var(--stroke-0, #E1E1E1)"/>
<path id="Vector 163" d="M1296.5 0V939.038" stroke="var(--stroke-0, #E1E1E1)"/>
<path id="Vector 164" d="M1304.5 0V939.038" stroke="var(--stroke-0, #E1E1E1)"/>
<path id="Vector 165" d="M1312.5 0V939.038" stroke="var(--stroke-0, #E1E1E1)"/>
<path id="Vector 166" d="M1320.5 0V939.038" stroke="var(--stroke-0, #E1E1E1)"/>
<path id="Vector 167" d="M1328.5 0V939.038" stroke="var(--stroke-0, #E1E1E1)"/>
<path id="Vector 168" d="M1336.5 0V939.038" stroke="var(--stroke-0, #E1E1E1)"/>
<path id="Vector 169" d="M1344.5 0V939.038" stroke="var(--stroke-0, #E1E1E1)"/>
<path id="Vector 170" d="M1352.5 0V939.038" stroke="var(--stroke-0, #E1E1E1)"/>
<path id="Vector 171" d="M1360.5 0V939.038" stroke="var(--stroke-0, #E1E1E1)"/>
<path id="Vector 172" d="M1368.5 0V939.038" stroke="var(--stroke-0, #E1E1E1)"/>
<path id="Vector 173" d="M1376.5 0V939.038" stroke="var(--stroke-0, #E1E1E1)"/>
<path id="Vector 174" d="M1384.5 0V939.038" stroke="var(--stroke-0, #E1E1E1)"/>
<path id="Vector 175" d="M1392.5 0V939.038" stroke="var(--stroke-0, #E1E1E1)"/>
</g>
</svg>
