<svg preserveAspectRatio="none" width="100%" height="100%" overflow="visible" style="display: block;" viewBox="0 0 37 20" fill="none" xmlns="http://www.w3.org/2000/svg">
<path id="Logo-wap" opacity="0.2" d="M24.8525 3.94141C25.6043 3.94155 26.2129 4.54363 26.2129 5.28613C26.2129 5.45508 26.1816 5.61615 26.125 5.76465L23.2041 13.1094C23.1915 13.1405 23.1836 13.1755 23.1836 13.2119C23.1837 13.3674 23.3126 13.494 23.4707 13.4941H25.0967C25.219 13.4941 25.3247 13.4181 25.3652 13.3105L29.0156 4.1123C29.0596 4.01194 29.1607 3.94158 29.2783 3.94141H35.6396C36.3905 3.94144 37 4.54357 37 5.28613C37 5.45508 36.9696 5.61615 36.9121 5.76465L33.1348 15.2695C32.9351 15.7675 32.4439 16.1191 31.8701 16.1191H27.3799C27.2622 16.1193 27.1612 16.1898 27.1172 16.291L25.7168 19.8193C25.6754 19.9252 25.5706 20 25.4492 20H23.1318C22.9736 20 22.8457 19.8733 22.8457 19.7168C22.8457 19.6805 22.8527 19.6471 22.8652 19.6152L24.0986 16.5059C24.1112 16.4738 24.1182 16.4389 24.1182 16.4033C24.1181 16.2471 23.9901 16.1204 23.832 16.1201H15.4492C14.6983 16.1201 14.089 15.517 14.0889 14.7744C14.0889 14.6055 14.1202 14.4444 14.1777 14.2959L16.3535 8.81543C16.5541 8.32022 17.0445 7.97075 17.6172 7.9707H22.1172C22.2386 7.9707 22.3434 7.89585 22.3848 7.79004L22.751 6.87109C22.7645 6.83822 22.7715 6.80196 22.7715 6.76465C22.7713 6.60826 22.6426 6.48145 22.4844 6.48145H17.7041C17.5458 6.48145 17.417 6.3538 17.417 6.19727C17.417 6.15827 17.4251 6.12158 17.4395 6.08789L18.2227 4.11523C18.2659 4.01319 18.3687 3.94141 18.4873 3.94141H24.8525ZM6.08887 0C6.24715 0 6.375 0.126682 6.375 0.283203C6.37496 0.315881 6.37006 0.347788 6.35938 0.376953L3.16406 8.46582C3.09756 8.62495 3.06153 8.79726 3.06152 8.97949V11.8711C3.06175 11.9501 3.12615 12.0137 3.20605 12.0137C3.25369 12.0137 3.29717 11.9906 3.32324 11.9551L5.5752 8.86523C5.63813 8.779 5.69204 8.68555 5.7334 8.58594L9.05469 0.175781C9.09784 0.0726917 9.20083 2.92205e-05 9.32129 0H11.79C11.9483 3.48266e-05 12.0771 0.126704 12.0771 0.283203C12.0771 0.315942 12.0704 0.347744 12.0605 0.376953L8.78125 8.50586C8.72384 8.65423 8.69336 8.81544 8.69336 8.9834V11.8701C8.69353 11.949 8.75818 12.0124 8.83789 12.0127C8.88556 12.0127 8.92799 11.9897 8.9541 11.9541L11.2422 8.86523C11.3051 8.7791 11.36 8.68542 11.4014 8.58594L14.7422 0.175781C14.7854 0.0727182 14.8882 0 15.0078 0H17.4932C17.6514 0 17.7803 0.126682 17.7803 0.283203C17.7802 0.315969 17.7735 0.347724 17.7637 0.376953L13.8477 10.2275C13.8099 10.3306 13.7594 10.4287 13.6982 10.5176L10.2598 15.5225C10.0142 15.8818 9.59815 16.1182 9.12695 16.1182L6.25781 16.1191C6.09974 16.1189 5.97168 15.9913 5.97168 15.835V13.6436C5.97142 13.5646 5.90613 13.501 5.82715 13.501C5.77875 13.5011 5.73598 13.5242 5.70996 13.5605L3.93457 16.002C3.8824 16.073 3.79733 16.1191 3.70117 16.1191H1.3623C0.608716 16.1191 0 15.5147 0 14.7695V8.97559C4.5818e-05 8.8076 0.0303775 8.64643 0.0878906 8.49805L3.33691 0.175781C3.3801 0.0718124 3.483 1.83151e-05 3.60254 0H6.08887ZM18.8965 10.7344C18.7769 10.7344 18.6741 10.8061 18.6309 10.9092L17.7568 13.1104C17.7433 13.1415 17.7373 13.1765 17.7373 13.2129C17.7375 13.3683 17.8655 13.4949 18.0234 13.4951H19.9209C20.044 13.4951 20.15 13.4191 20.1904 13.3115L21.0625 11.1191C21.0751 11.0871 21.0811 11.0531 21.0811 11.0166C21.0809 10.8603 20.953 10.7346 20.7949 10.7344H18.8965ZM31.208 6.48145C31.0858 6.48145 30.98 6.55753 30.9395 6.66504L28.3789 13.1104C28.3673 13.1414 28.3604 13.1765 28.3604 13.2129C28.3605 13.3684 28.4893 13.4951 28.6475 13.4951H30.54C30.663 13.4949 30.7672 13.419 30.8086 13.3115L33.3691 6.86719C33.3808 6.83524 33.3877 6.80014 33.3877 6.76465C33.3875 6.60826 33.2578 6.48145 33.1006 6.48145H31.208Z" fill="var(--fill-0, black)"/>
</svg>
