<svg preserveAspectRatio="none" width="100%" height="100%" overflow="visible" style="display: block;" viewBox="0 0 46 46" fill="none" xmlns="http://www.w3.org/2000/svg">
<foreignObject x="-56" y="-57" width="158" height="158"><div xmlns="http://www.w3.org/1999/xhtml" style="backdrop-filter:blur(30px);clip-path:url(#bgblur_0_3_25_clip_path);height:100%;width:100%"></div></foreignObject><g id="Frame 1410137304" filter="url(#filter0_d_3_25)" data-figma-bg-blur-radius="60">
<rect x="4" y="3" width="38" height="38" rx="12" fill="url(#paint0_linear_3_25)" fill-opacity="0.2" shape-rendering="crispEdges"/>
<rect x="4.5" y="3.5" width="37" height="37" rx="11.5" stroke="url(#paint1_radial_3_25)" stroke-opacity="0.2" shape-rendering="crispEdges"/>
<foreignObject x="-48" y="-49" width="142" height="142"><div xmlns="http://www.w3.org/1999/xhtml" style="backdrop-filter:blur(30px);clip-path:url(#bgblur_1_3_25_clip_path);height:100%;width:100%"></div></foreignObject><g id="Vector" filter="url(#filter1_d_3_25)" data-figma-bg-blur-radius="60">
<path d="M17.3638 32.2571C17.3638 32.6674 17.029 33 16.6159 33H13.4325C13.0195 33 12.6847 32.6674 12.6847 32.2571V19.0009C12.6847 18.5906 13.0195 18.258 13.4325 18.258H16.6159C17.029 18.258 17.3638 18.5906 17.3638 19.0009V32.2571ZM15.0242 17.0084C13.354 17.0084 12 15.6634 12 14.0042C12 12.345 13.354 11 15.0242 11C16.6944 11 18.0485 12.345 18.0485 14.0042C18.0485 15.6634 16.6945 17.0084 15.0242 17.0084ZM34 32.317C34 32.6942 33.6921 33 33.3124 33H29.8964C29.5167 33 29.2088 32.6942 29.2088 32.317V26.099C29.2088 25.1715 29.4827 22.0344 26.7686 22.0344C24.6633 22.0344 24.2363 24.1816 24.1505 25.1452V32.317C24.1505 32.6942 23.8427 33 23.4629 33H20.1591C19.7794 33 19.4715 32.6942 19.4715 32.317V18.9411C19.4715 18.5638 19.7794 18.258 20.1591 18.258H23.4629C23.8427 18.258 24.1505 18.5638 24.1505 18.9411C24.1505 19.2888 24.6385 19.4511 24.8946 19.2158C25.6631 18.5099 26.7664 18.0356 28.5614 18.0356C34.0313 18.0356 34 23.112 34 25.9012V32.317Z" fill="var(--fill-0, white)"/>
</g>
</g>
<defs>
<filter id="filter0_d_3_25" x="-56" y="-57" width="158" height="158" filterUnits="userSpaceOnUse" color-interpolation-filters="sRGB">
<feFlood flood-opacity="0" result="BackgroundImageFix"/>
<feColorMatrix in="SourceAlpha" type="matrix" values="0 0 0 0 0 0 0 0 0 0 0 0 0 0 0 0 0 0 127 0" result="hardAlpha"/>
<feOffset dy="1"/>
<feGaussianBlur stdDeviation="2"/>
<feComposite in2="hardAlpha" operator="out"/>
<feColorMatrix type="matrix" values="0 0 0 0 0 0 0 0 0 0 0 0 0 0 0 0 0 0 0.1 0"/>
<feBlend mode="normal" in2="BackgroundImageFix" result="effect1_dropShadow_3_25"/>
<feBlend mode="normal" in="SourceGraphic" in2="effect1_dropShadow_3_25" result="shape"/>
</filter>
<clipPath id="bgblur_0_3_25_clip_path" transform="translate(56 57)"><rect x="4" y="3" width="38" height="38" rx="12"/>
</clipPath><filter id="filter1_d_3_25" x="-48" y="-49" width="142" height="142" filterUnits="userSpaceOnUse" color-interpolation-filters="sRGB">
<feFlood flood-opacity="0" result="BackgroundImageFix"/>
<feColorMatrix in="SourceAlpha" type="matrix" values="0 0 0 0 0 0 0 0 0 0 0 0 0 0 0 0 0 0 127 0" result="hardAlpha"/>
<feOffset dy="1"/>
<feGaussianBlur stdDeviation="2"/>
<feComposite in2="hardAlpha" operator="out"/>
<feColorMatrix type="matrix" values="0 0 0 0 0 0 0 0 0 0 0 0 0 0 0 0 0 0 0.1 0"/>
<feBlend mode="normal" in2="BackgroundImageFix" result="effect1_dropShadow_3_25"/>
<feBlend mode="normal" in="SourceGraphic" in2="effect1_dropShadow_3_25" result="shape"/>
</filter>
<clipPath id="bgblur_1_3_25_clip_path" transform="translate(48 49)"><path d="M17.3638 32.2571C17.3638 32.6674 17.029 33 16.6159 33H13.4325C13.0195 33 12.6847 32.6674 12.6847 32.2571V19.0009C12.6847 18.5906 13.0195 18.258 13.4325 18.258H16.6159C17.029 18.258 17.3638 18.5906 17.3638 19.0009V32.2571ZM15.0242 17.0084C13.354 17.0084 12 15.6634 12 14.0042C12 12.345 13.354 11 15.0242 11C16.6944 11 18.0485 12.345 18.0485 14.0042C18.0485 15.6634 16.6945 17.0084 15.0242 17.0084ZM34 32.317C34 32.6942 33.6921 33 33.3124 33H29.8964C29.5167 33 29.2088 32.6942 29.2088 32.317V26.099C29.2088 25.1715 29.4827 22.0344 26.7686 22.0344C24.6633 22.0344 24.2363 24.1816 24.1505 25.1452V32.317C24.1505 32.6942 23.8427 33 23.4629 33H20.1591C19.7794 33 19.4715 32.6942 19.4715 32.317V18.9411C19.4715 18.5638 19.7794 18.258 20.1591 18.258H23.4629C23.8427 18.258 24.1505 18.5638 24.1505 18.9411C24.1505 19.2888 24.6385 19.4511 24.8946 19.2158C25.6631 18.5099 26.7664 18.0356 28.5614 18.0356C34.0313 18.0356 34 23.112 34 25.9012V32.317Z"/>
</clipPath><linearGradient id="paint0_linear_3_25" x1="9.0855" y1="41" x2="-5.13067" y2="19.4291" gradientUnits="userSpaceOnUse">
<stop stop-color="white"/>
<stop offset="1" stop-color="#686868"/>
</linearGradient>
<radialGradient id="paint1_radial_3_25" cx="0" cy="0" r="1" gradientTransform="matrix(-33.7621 -31.2658 41.9001 -47.8787 39.881 41)" gradientUnits="userSpaceOnUse">
<stop offset="0.309213" stop-color="white"/>
<stop offset="0.593551" stop-color="white" stop-opacity="0"/>
<stop offset="0.70117" stop-color="white" stop-opacity="0"/>
<stop offset="0.880693" stop-color="white"/>
</radialGradient>
</defs>
</svg>
