<svg preserveAspectRatio="none" width="100%" height="100%" overflow="visible" style="display: block;" viewBox="0 0 12 12" fill="none" xmlns="http://www.w3.org/2000/svg">
<g id="Star">
<g id="Path">
</g>
<path id="Path_2" fill-rule="evenodd" clip-rule="evenodd" d="M3.64455 11.1533C3.36443 11.3076 3.02556 11.2804 2.77075 11.0833C2.51594 10.8861 2.38952 10.5532 2.44476 10.2249L2.89185 7.52058L1.00955 5.61702C0.779477 5.38547 0.695156 5.03546 0.79251 4.71607C0.889863 4.39668 1.15174 4.16419 1.46659 4.11762L4.08003 3.72338L5.25991 1.23954C5.39981 0.941651 5.68762 0.753196 6.00266 0.753196C6.3177 0.753196 6.60552 0.941651 6.74541 1.23954L7.9253 3.72338L10.5387 4.11762C10.8536 4.16419 11.1155 4.39668 11.2128 4.71607C11.3102 5.03546 11.2259 5.38547 10.9958 5.61702L9.11348 7.52058L9.56056 10.2254C9.61581 10.5538 9.48938 10.8867 9.23458 11.0838C8.97977 11.281 8.64089 11.3082 8.36078 11.1539L6.00266 9.86795L3.64455 11.1533Z" fill="var(--fill-0, #FFAE00)"/>
</g>
</svg>
