<svg preserveAspectRatio="none" width="100%" height="100%" overflow="visible" style="display: block;" viewBox="0 0 9 9" fill="none" xmlns="http://www.w3.org/2000/svg">
<path id="Vector" fill-rule="evenodd" clip-rule="evenodd" d="M2.47901 8.91444C2.23815 9.04669 1.94842 9.02338 1.72985 8.85435C1.51127 8.68533 1.40328 8.39998 1.45042 8.11858L1.83356 5.80062L0.220391 4.16905C0.0232448 3.97053 -0.0496095 3.67054 0.0343919 3.39677C0.117536 3.123 0.342108 2.92371 0.612112 2.88385L2.85187 2.54588L3.86331 0.416914C3.98331 0.161572 4.23018 0 4.50019 0C4.77019 0 5.01704 0.161572 5.13619 0.416914L6.14764 2.54588L8.38825 2.88385C8.65825 2.92371 8.88284 3.123 8.96598 3.39677C9.04913 3.67054 8.97712 3.97053 8.77997 4.16905L7.1668 5.80062L7.54995 8.1191C7.59709 8.4005 7.48823 8.68584 7.27051 8.85487C7.05194 9.02389 6.76136 9.04712 6.52135 8.91487L4.50019 7.81267L2.47901 8.91444Z" fill="var(--fill-0, white)"/>
</svg>
