<svg preserveAspectRatio="none" width="100%" height="100%" overflow="visible" style="display: block;" viewBox="0 0 225 225.002" fill="none" xmlns="http://www.w3.org/2000/svg">
<path id="Vector" d="M1.50005 223.502C1.50005 223.502 2.88388 200.169 10.0385 187.324C17.3015 174.284 30.6663 157.731 30.6663 157.731C38.0526 144.514 47.5549 137.223 57.3943 137.223H68.9309C71.0517 137.223 73.1038 135.695 74.7224 132.909L75.2879 131.935C76.5415 129.778 78.1307 128.595 79.7732 128.595C81.1333 128.595 82.4634 127.782 83.599 126.258L94.2415 111.967C99.5654 104.818 105.52 99.8345 111.776 97.2901L124.384 92.1635C125.09 91.8749 125.81 91.7306 126.531 91.7306C130.191 91.7306 133.61 88.0112 135.64 81.8179L147.021 47.1041C148.002 44.1126 149.653 42.3164 151.422 42.3164C152.587 42.3164 153.721 41.5321 154.646 40.0858L155.727 38.3947C157.804 20.6711 166.495 -10.5472 184.653 6.36804C202.811 23.2833 218.117 12.3319 223.5 4.74177" stroke="url(#paint0_linear_3_155)" stroke-width="3" stroke-linecap="round"/>
<defs>
<linearGradient id="paint0_linear_3_155" x1="187.5" y1="1.50154" x2="30.5001" y2="202.502" gradientUnits="userSpaceOnUse">
<stop/>
<stop offset="1" stop-opacity="0.3"/>
</linearGradient>
</defs>
</svg>
